<svg width="18" height="13" viewBox="0 0 18 13" fill="none" xmlns="http://www.w3.org/2000/svg">
<path d="M14.6083 0.508332L13.5417 1.34166L9 4.71667L4.45834 1.30833L3.39167 0.474998C3.14038 0.267119 2.83363 0.137532 2.50941 0.10229C2.18519 0.0670483 1.85776 0.127701 1.56768 0.276735C1.2776 0.425768 1.03761 0.656633 0.877456 0.940727C0.7173 1.22482 0.644013 1.54966 0.666672 1.875V11.5333C0.666672 11.8339 0.786076 12.1222 0.998618 12.3347C1.21116 12.5473 1.49943 12.6667 1.80001 12.6667H4.45834V6.23333L9 9.64167L13.5417 6.23333V12.6667H16.2C16.5006 12.6667 16.7889 12.5473 17.0014 12.3347C17.2139 12.1222 17.3333 11.8339 17.3333 11.5333V1.875C17.349 1.55247 17.2706 1.23233 17.1077 0.953517C16.9448 0.674699 16.7045 0.449204 16.4158 0.30444C16.1272 0.159677 15.8027 0.101881 15.4818 0.138077C15.1609 0.174274 14.8575 0.302904 14.6083 0.508332Z" fill="white"/>
</svg>
