<svg width="460" height="460" viewBox="0 0 460 460" fill="none" xmlns="http://www.w3.org/2000/svg">
<path d="M231.03 443.753C348.102 443.753 443.008 388.97 443.008 321.393C443.008 253.815 348.102 199.033 231.03 199.033C113.959 199.033 19.0532 253.815 19.0532 321.393C19.0532 388.97 113.959 443.753 231.03 443.753Z" fill="#F5F5F5"/>
<path d="M401.893 63.9308L396.207 60.6464C396.222 60.4136 396.222 60.1801 396.207 59.9472V58.3004C396.123 56.705 395.662 55.1522 394.863 53.769C394.063 52.3859 392.948 51.2116 391.607 50.3424C391.207 50.0728 390.756 49.8865 390.281 49.7948C389.807 49.7032 389.32 49.7079 388.847 49.8088C388.433 45.6412 385.535 40.9308 382.021 38.9068C378.23 36.708 375.148 38.4836 375.148 42.872V45.3376C375.165 46.5345 375.36 47.7221 375.728 48.8612L371.008 46.1012C369.601 45.2916 368.46 45.9448 368.46 47.5732C368.507 48.4579 368.763 49.3189 369.206 50.0862C369.649 50.8535 370.266 51.5055 371.008 51.9892L401.819 69.782C403.227 70.5916 404.368 69.9384 404.368 68.31C404.323 67.4382 404.076 66.5887 403.646 65.8287C403.217 65.0687 402.617 64.4189 401.893 63.9308Z" fill="#EBEBEB"/>
<path d="M325.892 45.8436L329.029 47.0488V40.1396C329.029 34.6196 333.399 33.35 338.146 36.0824C342.893 38.8424 346.739 45.4848 346.739 50.968V51.9708C347.405 51.7631 348.11 51.7098 348.801 51.815C349.491 51.9202 350.148 52.1811 350.722 52.578C352.521 53.7528 354.018 55.3343 355.092 57.1946C356.166 59.055 356.787 61.1419 356.905 63.2868V63.7468L361.275 66.24C362.46 67.0122 363.446 68.0526 364.154 69.2769C364.862 70.5012 365.272 71.8751 365.35 73.2872C365.35 75.8908 363.51 76.9672 361.275 75.6424L325.892 55.2184C324.708 54.4438 323.723 53.4014 323.016 52.1755C322.31 50.9497 321.902 49.5748 321.825 48.162C321.825 45.5952 323.647 44.5464 325.892 45.8436Z" fill="#EBEBEB"/>
<path d="M336.876 404.441C372.129 404.441 400.706 387.945 400.706 367.595C400.706 347.246 372.129 330.749 336.876 330.749C301.624 330.749 273.047 347.246 273.047 367.595C273.047 387.945 301.624 404.441 336.876 404.441Z" fill="#E0E0E0"/>
<path d="M93.012 371.551L196.88 311.586C197.129 311.502 197.346 311.343 197.499 311.13C197.652 310.917 197.735 310.661 197.735 310.399C197.735 310.136 197.652 309.88 197.499 309.667C197.346 309.454 197.129 309.295 196.88 309.212L189.419 304.906C188.78 304.587 188.076 304.421 187.363 304.421C186.649 304.421 185.945 304.587 185.306 304.906L143.143 329.25C142.508 329.576 141.805 329.747 141.091 329.747C140.377 329.747 139.674 329.576 139.04 329.25L62.1644 284.869C61.5259 284.55 60.8219 284.384 60.1082 284.384C59.3944 284.384 58.6905 284.55 58.052 284.869L54.4456 286.948C54.1966 287.031 53.9801 287.19 53.8266 287.403C53.6732 287.616 53.5906 287.872 53.5906 288.135C53.5906 288.397 53.6732 288.653 53.8266 288.866C53.9801 289.079 54.1966 289.238 54.4456 289.322L131.394 333.748C131.643 333.832 131.86 333.991 132.013 334.204C132.167 334.417 132.249 334.673 132.249 334.935C132.249 335.198 132.167 335.454 132.013 335.667C131.86 335.88 131.643 336.039 131.394 336.122L81.4384 364.881C81.1927 364.966 80.9796 365.126 80.8288 365.338C80.678 365.55 80.597 365.803 80.597 366.063C80.597 366.323 80.678 366.577 80.8288 366.789C80.9796 367.001 81.1927 367.16 81.4384 367.246L88.8996 371.551C89.5359 371.877 90.2407 372.047 90.9558 372.047C91.6708 372.047 92.3756 371.877 93.012 371.551Z" fill="#E0E0E0"/>
<path d="M100.878 359.72L108.238 355.534C108.238 355.534 111.752 336.168 109.158 319.516C105.478 296.111 89.5252 288.034 83.7384 290.361C77.9516 292.689 76.59 299.626 87.0504 313.15C93.1408 321.163 101.071 338.036 100.878 359.72Z" fill="#F58F29"/>
<g opacity="0.15">
<path d="M100.878 359.72L108.238 355.534C108.238 355.534 111.752 336.168 109.158 319.516C105.478 296.111 89.5252 288.034 83.7384 290.361C77.9516 292.689 76.59 299.626 87.0504 313.15C93.1408 321.163 101.071 338.036 100.878 359.72Z" fill="black"/>
</g>
<path d="M103.528 350.465H103.463C103.325 350.446 103.2 350.374 103.116 350.264C103.031 350.153 102.994 350.014 103.012 349.876C106.039 327.962 97.2257 303.95 87.3725 294.28C87.2752 294.181 87.2208 294.047 87.2208 293.908C87.2208 293.769 87.2752 293.635 87.3725 293.535C87.4706 293.439 87.6027 293.384 87.7405 293.384C87.8782 293.384 88.0103 293.439 88.1085 293.535C98.2285 303.379 107.18 327.787 104.107 350.023C104.085 350.157 104.012 350.276 103.905 350.358C103.797 350.44 103.662 350.478 103.528 350.465Z" fill="white"/>
<path d="M80.546 371.505C79.3868 372.168 77.004 370.714 76.084 370.098C74.5137 369.035 73.2458 367.583 72.404 365.884C71.4558 363.958 71.1341 361.783 71.484 359.665C71.6662 358.547 71.9275 357.443 72.266 356.362C72.5788 355.286 72.8824 354.218 73.186 353.151C73.559 352.114 73.7186 351.013 73.6552 349.913C73.37 347.714 71.4196 346.178 69.6532 344.853C67.6936 343.381 65.6512 341.449 65.6604 338.808C65.8075 336.761 66.6293 334.819 67.9972 333.288C69.2576 331.688 70.7572 330.271 71.898 328.587C72.7953 327.407 73.2656 325.957 73.232 324.475C73.1044 323.568 72.7912 322.697 72.312 321.917C71.392 320.197 70.15 318.614 69.552 316.765C68.954 314.916 69 312.616 70.472 311.3C71.6588 310.215 73.416 310.058 75.0168 310.169C76.5186 310.348 77.9631 310.853 79.2488 311.65C83.444 313.987 85.836 318.955 90.2888 320.749C92.0557 321.303 93.8565 321.742 95.68 322.064C97.52 322.543 99.2956 323.454 100.124 325.11C101.761 328.376 98.7252 332.396 99.8752 335.864C100.896 338.928 103.868 340.106 105.542 342.866C106.227 344.087 106.501 345.497 106.324 346.886C106.185 349.231 105.611 351.531 104.632 353.666C103.559 355.792 102.329 357.834 100.952 359.775C100.804 359.83 80.7208 371.404 80.546 371.505Z" fill="#F58F29"/>
<path d="M92.4416 365.166C92.3728 365.164 92.305 365.148 92.2423 365.119C92.1796 365.091 92.1231 365.05 92.0761 365C92.0291 364.949 91.9925 364.89 91.9684 364.826C91.9443 364.761 91.9332 364.692 91.9356 364.624C92.8004 343.878 83.03 320.979 75.9184 314.327C75.8218 314.229 75.7676 314.097 75.7676 313.959C75.7676 313.821 75.8218 313.689 75.9184 313.591C76.0181 313.494 76.1518 313.44 76.291 313.44C76.4303 313.44 76.564 313.494 76.6636 313.591C83.9132 320.381 93.886 343.657 93.012 364.697C92.9958 364.834 92.9274 364.959 92.8211 365.046C92.7148 365.134 92.5789 365.177 92.4416 365.166Z" fill="white"/>
<path d="M89.332 340.658C89.2802 340.666 89.2274 340.666 89.1756 340.658C84.2621 339.302 79.215 338.487 74.1244 338.229C73.9853 338.223 73.8544 338.162 73.7603 338.059C73.6663 337.956 73.6169 337.82 73.623 337.681C73.6291 337.542 73.6902 337.411 73.7929 337.317C73.8955 337.223 74.0313 337.174 74.1704 337.18C79.3506 337.451 84.4863 338.281 89.4884 339.655C89.5541 339.675 89.6151 339.707 89.6679 339.751C89.7207 339.795 89.7643 339.849 89.796 339.91C89.8277 339.971 89.8469 340.037 89.8526 340.106C89.8582 340.174 89.8501 340.243 89.8288 340.308C89.795 340.412 89.7283 340.503 89.6387 340.566C89.5491 340.629 89.4415 340.661 89.332 340.658Z" fill="white"/>
<path d="M162.095 292.293V289.588L113.933 317.446L116.224 318.798L162.095 292.293Z" fill="#37474F"/>
<path d="M102.037 108.91C102.156 108.977 102.25 109.08 102.306 109.204C102.362 109.328 102.377 109.466 102.35 109.6L62.4404 286.746L61.3088 291.769C60.7569 291.808 60.2045 291.7 59.708 291.456L57.04 289.883C56.9215 289.814 56.8282 289.709 56.7736 289.583C56.719 289.457 56.706 289.317 56.7364 289.184L97.704 107.346C97.7267 107.251 97.7706 107.162 97.8325 107.087C97.8944 107.012 97.9726 106.951 98.0612 106.91C98.1497 106.87 98.2464 106.85 98.3439 106.852C98.4414 106.854 98.5372 106.878 98.624 106.922L102.037 108.91Z" fill="#37474F"/>
<path d="M107.042 106.49L65.8812 289.193C65.8485 289.337 65.7857 289.474 65.697 289.593C65.6082 289.711 65.4954 289.81 65.366 289.883L62.6888 291.428C62.2675 291.663 61.7909 291.781 61.3088 291.769L62.4404 286.746L102.451 109.186L107.042 106.49Z" fill="#455A64"/>
<path d="M111.642 352.71V357.99C111.129 358.002 110.62 357.888 110.161 357.659L107.677 356.224C107.511 356.147 107.368 356.027 107.263 355.877C107.158 355.726 107.094 355.551 107.079 355.368V196.696L111.679 199.346L111.642 352.71Z" fill="#37474F"/>
<path d="M116.233 196.705V355.396C116.208 355.57 116.14 355.735 116.033 355.875C115.927 356.015 115.787 356.126 115.626 356.196L113.16 357.632C112.701 357.882 112.183 358.006 111.66 357.99V199.346L116.233 196.705Z" fill="#455A64"/>
<path d="M171.184 323.619C170.679 323.6 170.187 323.458 169.749 323.205L167.192 321.724C167.026 321.627 166.883 321.494 166.775 321.334C166.667 321.175 166.596 320.994 166.566 320.804L139.205 178.121L143.805 180.771L170.2 318.486L171.184 323.619Z" fill="#37474F"/>
<path d="M175.766 320.942C175.746 321.129 175.677 321.308 175.565 321.46C175.454 321.612 175.304 321.732 175.131 321.807L172.794 323.168L172.684 323.233C172.222 323.477 171.707 323.601 171.184 323.592L170.2 318.486L143.796 180.771L148.396 178.13L175.711 320.73L175.766 320.942Z" fill="#455A64"/>
<path d="M114.65 324.99L166.676 294.952V289.653L114.65 319.691V324.99Z" fill="#455A64"/>
<path d="M168.93 41.8324L168.838 41.7772L168.59 41.6392C167.256 40.8848 161.736 37.7752 149.822 30.9396C140.318 25.4748 128.524 25.806 115.782 33.1844C84.2812 51.3544 58.7788 105.34 58.788 153.778C58.788 182.528 67.7856 202.869 81.6684 210.818C90.022 215.611 98.5964 220.469 100.547 221.582C100.62 221.616 100.691 221.656 100.758 221.702L100.961 221.812C110.4 227.065 122.066 226.66 134.688 219.374C166.143 201.204 191.645 147.218 191.645 98.7804C191.654 70.15 182.73 49.864 168.93 41.8324Z" fill="#F58F29"/>
<path opacity="0.1" d="M168.93 41.8324L168.838 41.7772L168.59 41.6392C167.256 40.8848 161.736 37.7752 149.822 30.9396C140.318 25.4748 128.524 25.806 115.782 33.1844C84.2812 51.3544 58.7788 105.34 58.788 153.778C58.788 182.528 67.7856 202.869 81.6684 210.818C90.022 215.611 98.5964 220.469 100.547 221.582C100.62 221.616 100.691 221.656 100.758 221.702L100.961 221.812C110.4 227.065 122.066 226.66 134.688 219.374C166.143 201.204 191.645 147.218 191.645 98.7804C191.654 70.15 182.73 49.864 168.93 41.8324Z" fill="black"/>
<path opacity="0.1" d="M179.492 159.988L69.4692 96.462C62.744 114.742 58.788 134.688 58.788 153.778C58.788 182.528 67.7856 202.869 81.6684 210.818C90.022 215.611 98.5964 220.469 100.547 221.582C100.62 221.616 100.691 221.656 100.758 221.702L100.961 221.812C110.4 227.065 122.066 226.66 134.688 219.374C152.876 208.895 169.068 186.429 179.492 159.988Z" fill="black"/>
<path opacity="0.1" d="M58.88 159.224C59.9564 185.104 68.6596 203.384 81.65 210.836C90.0036 215.63 98.578 220.487 100.528 221.6C100.602 221.635 100.673 221.675 100.74 221.72L100.942 221.83C110.382 227.084 122.047 226.679 134.67 219.392C139.123 216.768 143.278 213.668 147.062 210.146L58.88 159.224Z" fill="black"/>
<path d="M134.688 43.9944C103.233 62.1552 77.74 116.141 77.74 164.579C77.74 213.017 103.242 237.553 134.697 219.392C166.152 201.232 191.654 147.2 191.654 98.7988C191.654 50.3976 166.152 25.8244 134.688 43.9944Z" fill="#F58F29"/>
<path d="M134.688 61.41C109.48 75.9644 89.0468 119.232 89.0468 158.01C89.0468 196.788 109.489 216.494 134.697 201.94C159.905 187.386 180.32 144.146 180.32 105.331C180.32 66.516 159.905 46.8464 134.688 61.41Z" fill="#FAFAFA"/>
<path d="M134.697 78.8256C115.727 89.7736 100.363 122.323 100.363 151.506C100.363 180.688 115.736 195.5 134.697 184.552C153.658 173.604 169.032 141.054 169.032 111.872C169.032 82.6896 153.64 67.8684 134.697 78.8256Z" fill="#F58F29"/>
<path d="M134.697 96.2412C121.974 103.601 111.697 125.405 111.697 145.001C111.697 164.597 122.01 174.506 134.697 167.164C147.384 159.822 157.697 137.991 157.697 118.404C157.697 98.8172 147.412 88.8904 134.697 96.2412Z" fill="#FAFAFA"/>
<path d="M134.697 113.648C128.257 117.392 122.976 128.496 122.986 138.488C122.995 148.479 128.23 153.502 134.697 149.767C141.165 146.032 146.409 134.927 146.409 124.927C146.409 114.926 141.165 109.912 134.697 113.648Z" fill="#455A64"/>
<path d="M349.039 348.579C348.8 350.308 348.008 351.725 350.272 355.746C352.029 358.855 354.568 360.152 356.206 361.266C358.041 362.576 359.696 364.122 361.128 365.866C362.564 367.807 364.311 369.498 366.298 370.87C367.844 371.892 371.818 371.496 373.557 370.466C375.296 369.435 375.857 367.77 375.351 364.771C374.845 361.772 365.571 361.91 365.571 361.91L349.039 348.579Z" fill="#37474F"/>
<path d="M373.805 330.28L373.345 358.414C373.345 360.07 364.265 362.14 362.305 358.358C362.054 355.453 361.599 352.57 360.944 349.729C360.235 346.904 359.03 341.992 359.03 341.992C358 336.131 357.54 331.807 357.54 331.807L373.805 330.28Z" fill="#FFA8A7"/>
<path d="M331.991 343.234C331.991 343.234 327.713 369.27 327.584 370.705C327.456 372.14 323.417 373.069 320.427 372.977C317.437 372.885 315.67 371.496 315.698 370.852L314.962 343.068L331.991 343.234Z" fill="#FFA8A7"/>
<path d="M335.8 308.559C335.8 308.559 336.168 303.545 339.13 288.411C341.191 277.923 342.902 266.662 342.902 266.662C342.902 266.662 346.582 280.241 348.744 290.941C350.29 298.724 351.845 306.056 354.844 320.887C356.09 327.408 357.687 333.858 359.628 340.207C365.396 343.27 373.833 339.756 373.833 339.756C373.833 339.756 374.182 330.712 374.063 319.516C373.916 305.017 370.742 299.34 370.742 299.34C370.742 299.34 369.518 279.79 368.902 265.356C368.074 244.886 368.708 225.796 363.888 209.861C363.142 209.659 317.888 189.888 316.71 216.964C316.425 223.652 315.928 241.454 315.45 255.742C314.631 279.956 314.861 297.97 314.833 306.213C314.668 314.152 314.594 321.595 314.741 336.407C314.815 342.847 315.192 348.367 315.192 348.367C320.62 352.047 332.221 347.558 332.221 347.558C332.221 347.558 332.736 341.191 334.337 332.194C337.189 316.48 335.8 308.559 335.8 308.559Z" fill="#37474F"/>
<g opacity="0.2">
<path d="M335.68 248.501C333.132 247.765 328.008 244.757 327.06 242.843C325.965 240.644 325.726 229.098 325.717 228.611V228.16L344.347 226.835L344.402 227.24C344.998 231.455 345.364 235.7 345.497 239.954V240.552C345.57 242.392 338.238 248.041 337.493 248.492C337.309 248.601 337.099 248.658 336.886 248.658C336.478 248.664 336.073 248.611 335.68 248.501ZM326.6 229.006C326.683 232.567 327.042 240.838 327.851 242.457C328.661 244.076 333.371 246.937 335.929 247.664C336.849 247.922 337.051 247.793 337.06 247.793C338.661 246.808 344.687 241.666 344.65 240.617V240.01C344.53 235.921 344.186 231.843 343.62 227.792L326.6 229.006Z" fill="black"/>
</g>
<g opacity="0.2">
<path d="M368.276 243.515L368.451 242.595C365.295 241.077 360.704 238.547 360.355 237.691C359.922 236.642 359.113 229.273 358.791 226.062C359.711 225.823 362.59 225.142 366.905 224.222L366.73 223.367C361.339 224.508 358.239 225.326 358.211 225.336L357.852 225.428V225.796C357.963 226.9 358.938 236.624 359.508 238.041C360.079 239.458 366.96 242.88 368.276 243.515Z" fill="black"/>
</g>
<path d="M314.879 340.998L314.962 343.068C314.962 343.068 316.627 345.239 323.766 345.386C330.906 345.534 332.764 343.675 332.764 343.675L332.994 341.946C334.135 342.212 333.914 343.565 333.16 346.941C332.405 350.318 331.78 353.234 331.044 353.933C330.308 354.632 326.444 355.828 322.258 355.635C318.072 355.442 315.321 353.703 314.585 352.691C313.849 351.679 313.6 347.631 313.398 345.451C313.196 343.27 313.637 341.081 314.879 340.998Z" fill="#F58F29"/>
<path d="M356.85 329.949L357.356 332.019C357.356 332.019 358.984 333.859 366.105 333.252C373.226 332.644 374.054 330.648 374.054 330.648V328.974C375.572 329.204 375.967 330.4 375.581 333.831C375.194 337.263 374.854 340.271 374.201 341.007C373.548 341.743 369.849 343.353 365.636 343.602C361.422 343.85 359.435 342.544 358.607 341.614C357.779 340.685 357.024 336.26 356.601 334.107C356.178 331.954 355.635 330.17 356.85 329.949Z" fill="#F58F29"/>
<path opacity="0.2" d="M342.912 266.662L346.159 250.599C348.239 249.602 350.07 248.154 351.52 246.36C352.97 244.567 354.001 242.473 354.54 240.23C354.54 240.23 355.083 247.59 348.671 251.27L344.678 266.579L346.27 279.772L342.912 266.662Z" fill="black"/>
<path d="M290.021 380.365C289.377 380.3 289.45 382.205 289.671 383.07C289.892 383.934 292.551 386.685 297.28 387.67C302.008 388.654 308.531 387.771 311.337 387.67C314.143 387.568 318.973 388.921 321.761 389.326C324.548 389.73 329.581 388.792 331.246 387.219C331.517 386.904 331.718 386.536 331.835 386.137C331.952 385.739 331.984 385.321 331.927 384.91C331.872 383.07 331.706 382.674 331.485 382.692L290.021 380.365Z" fill="#37474F"/>
<path d="M330.584 367.687C330.871 366.686 331.068 365.66 331.172 364.624C331.248 363.761 331.126 362.892 330.814 362.084C330.632 361.769 330.388 361.494 330.098 361.276C329.807 361.058 329.474 360.901 329.121 360.815L328.716 363.4C328.173 363.924 326.646 364.164 326.02 364.568C324.613 365.488 324.337 367.393 323.969 369.03C323.912 369.417 323.767 369.785 323.546 370.107C322.276 371.68 321.908 368.929 321.844 368.193C321.752 367.126 321.66 365.939 320.868 365.212C320.059 364.641 319.099 364.321 318.108 364.292C317.142 364.21 315.992 364.246 315.468 363.372L315.404 361.744C314.585 361.652 313.416 361.808 313.076 362.664C312.95 363.091 312.925 363.541 313.002 363.98C313.131 365.203 313.306 366.427 313.545 367.66C313.777 368.563 313.915 369.488 313.959 370.42C313.969 370.591 313.969 370.763 313.959 370.935C313.739 371.334 313.423 371.672 313.039 371.919C311.53 372.63 309.887 373.013 308.218 373.042C305.79 373.198 303.729 372.83 300.996 372.793C298.487 372.651 295.983 373.161 293.728 374.274C292.534 374.848 291.543 375.771 290.886 376.921C290.228 378.072 289.936 379.394 290.048 380.714C291.016 382.464 292.537 383.842 294.372 384.634C296.662 385.522 299.078 386.043 301.53 386.179C304.41 386.474 308.393 385.968 311.282 385.802C313.709 385.741 316.134 385.997 318.495 386.566C322.175 387.302 324.677 387.486 327.998 386.492C329.259 386.106 330.823 385.36 331.402 383.971C331.588 382.064 331.473 380.139 331.062 378.267C330.998 377.89 330.924 377.522 330.841 377.154C330.758 376.786 330.62 376.234 330.501 375.792C330.317 375.102 330.308 374.348 330.188 373.64C330.142 373.382 330.004 372.72 329.829 371.882C329.906 371.076 330.029 370.274 330.197 369.481C330.28 368.92 330.436 368.276 330.584 367.687Z" fill="#455A64"/>
<path d="M312.276 372.214C310.63 373.61 309.585 375.587 309.359 377.734C309.414 379.132 306.949 379.224 306.894 377.835C307.255 376.055 308.016 374.382 309.12 372.94C310.043 372.311 311.17 372.051 312.276 372.214Z" fill="#FAFAFA"/>
<path d="M306.912 373.032C305.538 374.274 304.594 375.92 304.216 377.734C304.17 378.764 302.027 378.654 302.073 377.623C302.073 377.623 302.404 374.32 304.778 372.95C305.44 372.48 306.691 372.6 306.912 373.032Z" fill="#FAFAFA"/>
<path d="M302.68 372.812C301.548 372.812 299.175 374.32 298.006 377.78C297.307 380.324 297.126 382.983 297.473 385.6C295.122 385.303 292.928 384.258 291.217 382.619C290.569 382.066 290.038 381.391 289.653 380.632C289.485 379.717 289.504 378.778 289.708 377.87C289.912 376.963 290.297 376.106 290.84 375.351C292.486 373.4 295.026 372.122 299.018 371.919C303.499 371.689 303.885 372.885 303.885 372.885L302.68 372.812Z" fill="#FAFAFA"/>
<path d="M351.495 344.899C353.712 343.602 360.116 346.527 360.116 346.527L360.493 348.027C360.493 348.027 360.76 349.094 360.898 349.618C361.229 350.805 362.738 351.192 363.842 351.348C366.727 351.605 369.63 351.101 372.26 349.885C373.428 349.241 373.502 348.533 373.502 348.533C373.502 348.11 373.502 346.96 373.502 346.96C374.219 346.96 375.038 347.291 374.918 348.8C374.707 351.504 374.468 356.224 374.918 358.68C375.121 359.895 375.461 361.321 375.636 362.526C375.765 363.345 375.728 365.755 374.652 366.721C374.351 367.09 373.986 367.402 373.575 367.641C371.238 369.095 367.135 368.856 365.222 366.96C362.793 364.605 361.082 362.462 357.678 359.6C355.663 357.926 353.722 357.126 352.084 355.065C351.188 353.884 350.5 352.558 350.051 351.146C348.827 347.76 349.214 346.233 351.495 344.899Z" fill="#455A64"/>
<path d="M357.935 353.666C358.496 352.076 359.542 350.702 360.925 349.738C360.787 349.177 360.631 348.606 360.493 348.027C359.466 348.504 358.546 349.184 357.787 350.025C357.028 350.866 356.447 351.851 356.077 352.921C355.755 353.952 357.218 354.531 357.935 353.666Z" fill="#FAFAFA"/>
<path d="M361.247 355.12C361.42 354.629 361.642 354.158 361.91 353.712C361.716 352.949 361.514 352.13 361.293 351.265C360.441 352.15 359.794 353.212 359.398 354.375C359.076 355.359 360.539 355.939 361.247 355.12Z" fill="#FAFAFA"/>
<path d="M352.066 355.194C352.066 354.927 351.679 348.606 360.116 346.536C360.116 346.49 359.968 345.938 359.904 345.708C358.823 344.727 357.475 344.086 356.031 343.868C352.949 343.445 350.704 344.512 349.398 346.73C348.091 348.947 350.354 354.099 352.066 355.194Z" fill="#FAFAFA"/>
<path d="M302.873 171.764C299.313 170.927 292.928 169.004 285.826 166.557C278.015 163.797 269.882 161.396 268.511 161.147C265.898 160.678 262.154 160.926 259.836 160.301C257.076 159.546 254.27 159.326 251.85 157.541C251.484 157.322 251.168 157.028 250.925 156.677C250.683 156.326 250.518 155.927 250.442 155.508C250.442 155.075 250.544 154.643 250.525 154.21C250.525 153.53 250.074 152.904 250.148 152.232C250.24 151.312 251.215 150.632 251.252 149.702C251.219 149.294 251.145 148.89 251.031 148.497C250.921 147.761 251.648 146.777 252.052 146.179C252.273 145.866 252.89 145.314 252.54 144.9C251.35 143.564 250.048 142.333 248.648 141.22C246.091 139.076 244.692 137.117 245.76 135.893C247.232 134.191 249.936 136.39 253.359 138.782C255.263 140.116 257.131 141.542 259.063 142.812C259.817 143.318 262.872 145.811 263.663 144.56C263.87 144.148 263.938 143.679 263.856 143.226C263.773 142.306 263.608 141.321 263.589 140.364C263.532 139.412 263.722 138.461 264.141 137.604C264.296 137.276 264.538 136.996 264.84 136.795C264.993 136.697 265.169 136.642 265.349 136.634C265.53 136.626 265.71 136.665 265.871 136.749C266.176 136.974 266.391 137.3 266.478 137.669C266.92 138.819 267.352 139.969 267.784 141.119C268.372 143.063 269.188 144.931 270.213 146.685C271.034 147.998 272.157 149.095 273.488 149.886C274.408 150.319 280.536 151.8 282.541 152.288C286 153.116 305.661 157.173 306.047 157.265L358.966 151.506L358.23 168.746C358.23 168.746 309.847 173.411 302.873 171.764Z" fill="#FFA8A7"/>
<path d="M356.408 149.804C360.005 149.325 365.433 149.362 368.515 153.401C371.597 157.44 371.56 160.641 371.524 165.793C371.487 170.945 368.966 180.127 368.966 180.127L356.408 149.804Z" fill="#F58F29"/>
<path d="M260.148 150.402C260.167 150.533 260.157 150.667 260.118 150.794C260.08 150.921 260.015 151.038 259.928 151.138C259.83 151.228 259.716 151.299 259.591 151.345C259.466 151.391 259.334 151.411 259.201 151.404C258.937 151.399 258.675 151.365 258.419 151.303C258.207 151.303 257.922 151.303 257.867 151.487C257.861 151.551 257.869 151.616 257.892 151.677C257.914 151.737 257.949 151.792 257.996 151.837C258.359 152.194 258.75 152.523 259.164 152.821C259.67 153.263 260.277 154.1 259.716 154.661C259.556 154.843 259.355 154.982 259.128 155.067C258.902 155.152 258.658 155.18 258.419 155.149C258.06 155.149 257.701 155.011 257.333 154.992C257.269 154.992 257.186 154.992 257.195 155.084C257.205 155.109 257.221 155.131 257.241 155.149C257.756 155.484 258.21 155.904 258.584 156.391C258.705 156.546 258.789 156.728 258.829 156.921C258.869 157.114 258.864 157.313 258.814 157.504C258.63 157.946 257.894 158.166 257.49 158.194H257.278C257.278 158.194 257.278 158.194 257.278 158.24H257.342C257.474 158.286 257.61 158.323 257.747 158.35C258.089 158.392 258.435 158.308 258.72 158.113C259.004 157.918 259.208 157.627 259.293 157.292C259.382 157 259.384 156.688 259.297 156.396C259.21 156.103 259.039 155.842 258.805 155.646C259.118 155.688 259.436 155.649 259.729 155.533C260.022 155.417 260.281 155.228 260.48 154.983C261.4 153.962 260.802 153.097 259.992 152.324C260.273 152.274 260.537 152.15 260.756 151.966C260.891 153.819 261.509 155.605 262.55 157.145C261.839 155.185 261.493 153.112 261.528 151.027C261.527 150.521 261.576 150.015 261.676 149.518C261.738 149.067 261.824 148.618 261.933 148.175C262.077 147.45 262.303 146.743 262.605 146.068C262.133 146.356 261.725 146.738 261.409 147.191C261.133 147.586 261.151 148.184 260.544 148.249C260.196 148.255 259.855 148.152 259.569 147.954C259.289 147.758 258.978 147.612 258.649 147.522C258.612 147.513 258.574 147.512 258.537 147.52C258.501 147.528 258.466 147.544 258.437 147.568C258.373 147.651 258.437 147.77 258.511 147.853C259.203 148.448 259.753 149.19 260.121 150.024C260.154 150.147 260.164 150.275 260.148 150.402Z" fill="#F28F8F"/>
<path d="M333.39 143.52L335.147 160.393L351.992 161.313L350.649 141.744L333.39 143.52Z" fill="#FFA8A7"/>
<path d="M323.546 123.326C323.546 123.326 319.277 129.113 319.691 129.766C320.105 130.419 322.994 131.063 322.994 131.063L323.546 123.326Z" fill="#F28F8F"/>
<path d="M335.404 107.327C327.318 108.588 324.815 111.927 323.389 124.642C321.89 137.88 323.03 142.122 324.677 144.008C325.79 145.277 332.322 145.848 335.671 145.102C339.866 144.182 349.37 141.376 354.071 134.927C359.637 127.346 361.56 116.766 356.279 112.111C348.892 105.552 338.698 106.812 335.404 107.327Z" fill="#FFA8A7"/>
<path d="M322.469 111.559C323.048 112.209 323.703 112.786 324.42 113.28C325.455 114.03 326.54 114.709 327.667 115.313C328.769 115.785 329.828 116.351 330.832 117.006C332.23 118.119 332.341 119.499 332.286 121.173C332.286 122.268 332.184 123.62 332.12 125.083C332.028 127.291 333.344 129.039 334.19 126.123C334.19 126.123 335.717 121.284 339.82 122.121C343.924 122.958 344.034 127.641 341.872 131.192C340.547 133.354 337.364 132.6 337.364 132.6C337.141 134.65 337.358 136.723 338 138.683C338.643 140.642 339.696 142.442 341.09 143.962C341.09 143.962 344.282 145.848 350.86 144.808C355.644 138.911 358.607 136.086 361.266 130.916C366.896 119.996 364.844 112.838 361.109 109.673C360.612 104.475 356.675 101.945 352.102 100.63C345.258 98.67 338.569 102.47 331.798 100.538C330.683 100.245 329.583 99.8949 328.504 99.4888C328.094 99.265 327.614 99.2058 327.161 99.3232C326.907 99.4731 326.702 99.694 326.571 99.9587C326.44 100.223 326.39 100.521 326.425 100.814C326.44 101.48 326.614 102.133 326.935 102.718C327.255 103.302 327.711 103.801 328.265 104.172C328.127 104.08 327.446 104.227 327.262 104.227C326.876 104.227 326.499 104.227 326.112 104.227C325.351 104.18 324.592 104.091 323.84 103.96C323.326 103.864 322.799 103.864 322.285 103.96C321.709 104.151 321.211 104.522 320.864 105.02C320.518 105.518 320.342 106.114 320.362 106.72C320.416 107.924 320.78 109.094 321.42 110.115C321.643 110.545 321.898 110.957 322.184 111.348C322.276 111.423 322.371 111.493 322.469 111.559Z" fill="#37474F"/>
<path d="M324.677 144.008C325.597 145.029 330.022 145.599 333.463 145.388H333.702L333.463 143.548C333.463 143.548 327.962 144.817 324.677 144.008Z" fill="#F28F8F"/>
<path d="M367.577 158.672C365.507 153.686 361.017 148.966 355.24 149.923C353.896 150.144 352.618 150.254 351.348 150.484C350.667 153.309 341.66 153.576 334.264 151.864L325.588 152.904C320.28 154.689 316.011 164.928 315.256 180.504C314.502 196.08 315.339 220.064 315.643 230.911C326.29 235.281 337.974 236.48 349.287 234.361C365.194 231.196 367.788 224.37 367.788 224.37L366.565 196.53C366.565 190.477 368.773 182.27 369.242 178.379C370.659 166.41 368.828 161.699 367.577 158.672Z" fill="#455A64"/>
<path d="M210.192 169.915C209.845 170.179 209.563 170.519 209.37 170.911C209.177 171.302 209.077 171.733 209.079 172.169C209.072 172.325 209.108 172.481 209.183 172.618C209.257 172.756 209.368 172.871 209.502 172.951L239.669 187.919L241.242 184.745L211.076 169.777C210.929 169.723 210.771 169.707 210.616 169.731C210.462 169.755 210.316 169.819 210.192 169.915Z" fill="#455A64"/>
<path d="M209.502 172.96C205.822 171.12 198.269 165.416 198.269 165.416C198.269 165.416 209.236 168.848 211.076 169.786L209.502 172.96Z" fill="#455A64"/>
<path opacity="0.2" d="M240.359 184.892L210.68 170.255L198.269 165.407L210.248 171.442L240.249 186.42L240.359 184.892Z" fill="white"/>
<path d="M240.359 184.92C240.01 185.18 239.727 185.519 239.533 185.909C239.34 186.299 239.241 186.729 239.246 187.165C239.301 187.965 239.881 188.25 240.543 187.809C240.894 187.548 241.178 187.208 241.371 186.816C241.565 186.424 241.663 185.992 241.656 185.555C241.601 184.736 241.04 184.442 240.359 184.92Z" fill="#37474F"/>
<path d="M239.292 185.693C243.496 177.956 264.196 167.67 281.327 176.143C298.457 184.616 330.197 217.442 338.56 234.6C318.467 238.05 277.398 234.894 260.866 226.725C244.334 218.555 235.722 203.706 239.292 185.693Z" fill="#F58F29"/>
<path opacity="0.7" d="M239.292 185.693C243.496 177.956 264.196 167.67 281.327 176.143C298.457 184.616 330.197 217.442 338.56 234.6C318.467 238.05 277.398 234.894 260.866 226.725C244.334 218.555 235.722 203.706 239.292 185.693Z" fill="white"/>
<path d="M253.92 212.787C253.074 199.714 260.047 184 269.496 177.707C273.488 175.039 277.279 174.487 280.398 175.729C263.451 168.047 243.404 178.094 239.274 185.693C235.704 203.706 244.352 218.537 260.875 226.706C257.066 224.765 254.398 219.88 253.92 212.787Z" fill="#F58F29"/>
<path opacity="0.15" d="M260.894 226.706C277.454 234.876 318.486 238.032 338.588 234.582C321.016 234.931 288.843 229.282 270.6 219.659C255.53 211.71 242.282 197.8 239.32 185.693C235.722 203.706 244.37 218.537 260.894 226.706Z" fill="black"/>
<path opacity="0.5" d="M239.292 185.693C255.456 179.179 272.292 182.666 283.691 188.775C295.09 194.884 329.829 221.821 338.56 234.6C338.56 234.6 313.619 200.054 286.534 184C259.449 167.946 239.292 185.693 239.292 185.693Z" fill="white"/>
<path d="M374.274 267.508C371.57 271.317 361.799 266.45 351.192 257.812L345.598 245.852L347.558 254.73C340.963 248.956 334.952 242.55 329.608 235.603C332.69 235.391 335.699 235.06 338.588 234.572L353.418 241.739C353.418 241.739 378.81 261.133 374.274 267.508Z" fill="#F58F29"/>
<path opacity="0.15" d="M374.274 267.508C371.57 271.317 361.799 266.45 351.192 257.812L345.598 245.852L347.558 254.73C340.963 248.956 334.952 242.55 329.608 235.603C332.69 235.391 335.699 235.06 338.588 234.572L353.418 241.739C353.418 241.739 378.81 261.133 374.274 267.508Z" fill="black"/>
<g opacity="0.15">
<path d="M329.608 235.612C332.195 239.02 334.959 242.291 337.888 245.41C335.795 242.974 334.071 240.243 332.773 237.305L338.661 236.284L353.381 241.748L338.56 234.6C335.699 235.069 332.69 235.4 329.608 235.612Z" fill="black"/>
</g>
<path d="M353.418 241.748L338.56 234.6C334.613 231.214 333.767 229.558 329.838 226.532C336.506 225.891 343.207 225.648 349.904 225.805L346.426 230.773L355.626 226.173C363.759 226.955 368.975 228.795 371.928 231.316C380.797 238.86 369.628 245.143 353.418 241.748Z" fill="#F58F29"/>
<path opacity="0.5" d="M346.454 230.754L349.931 225.786C343.234 225.63 336.534 225.873 329.866 226.513C329.866 226.513 345.239 226.357 347.668 226.771L346.454 230.754Z" fill="white"/>
<path opacity="0.5" d="M361.56 242.687C372.986 242.843 379.206 237.507 371.938 231.279C368.984 228.758 363.768 226.918 355.635 226.136L351.035 228.445L356.16 227.028C356.16 227.028 366.629 228.086 371.312 233.257C374.192 236.44 370.935 242.604 361.56 242.687Z" fill="white"/>
<path d="M323.178 176.189C313.481 194.525 307.942 206.88 304.897 209.972C301.852 213.063 278.861 231.132 270.554 231.96C262.246 232.788 254.812 230.248 254.086 226.016C253.848 224.834 253.832 223.617 254.04 222.428C254.04 222.428 256.036 223.827 256.137 223.864C258.667 224.728 262.504 224.443 264.334 223.045C267.039 220.975 260.93 219.365 259.504 217.635C257.664 215.473 258.465 213.136 263.056 215.142C267.048 216.899 270.6 218.288 273.442 218.206C276.285 218.123 292.615 201.011 292.615 201.011C292.615 201.011 301.374 182.51 305.449 172.629C313.113 154.072 320.611 154.164 324.677 154.072L323.178 176.189Z" fill="#FFA8A7"/>
<path d="M325.588 152.904C321.604 153.3 318.633 153.474 315.302 155.232C311.264 157.357 309.838 161.156 308.007 165.352C304.52 173.3 301.208 180.513 301.208 180.513C302.524 184.101 309.93 192.712 316.636 190.21C316.636 190.21 322.285 180.458 325.229 174.165C327.98 168.268 328.523 157.743 325.588 152.904Z" fill="#F58F29"/>
</svg>
