<svg width="467" height="467" viewBox="0 0 467 467" fill="none" xmlns="http://www.w3.org/2000/svg">
<path d="M467 357.16H0V357.393H467V357.16Z" fill="#EBEBEB"/>
<path d="M420.208 372.193H389.272V372.427H420.208V372.193Z" fill="#EBEBEB"/>
<path d="M309.359 374.728H301.24V374.962H309.359V374.728Z" fill="#EBEBEB"/>
<path d="M388.337 363.52H370.411V363.754H388.337V363.52Z" fill="#EBEBEB"/>
<path d="M89.339 365.089H48.9967V365.323H89.339V365.089Z" fill="#EBEBEB"/>
<path d="M103.57 365.089H97.6553V365.323H103.57V365.089Z" fill="#EBEBEB"/>
<path d="M210.287 369.034H122.794V369.267H210.287V369.034Z" fill="#EBEBEB"/>
<path d="M221.371 315.505H41.0166C38.0773 315.505 35.6854 313.113 35.6854 310.174V56.6564C35.6854 53.7171 38.0773 51.3252 41.0166 51.3252H221.371C224.309 51.3252 226.701 53.7171 226.701 56.6564V310.174C226.701 313.113 224.309 315.505 221.371 315.505ZM41.0166 51.5596C38.2053 51.5596 35.9189 53.846 35.9189 56.6574V310.175C35.9189 312.986 38.2053 315.273 41.0166 315.273H221.371C224.181 315.273 226.468 312.986 226.468 310.175V56.6564C226.468 53.846 224.181 51.5587 221.371 51.5587L41.0166 51.5596Z" fill="#EBEBEB"/>
<path d="M423.392 315.505H243.038C240.099 315.505 237.708 313.113 237.708 310.174V56.6564C237.708 53.7171 240.1 51.3252 243.038 51.3252H423.392C426.332 51.3252 428.723 53.7171 428.723 56.6564V310.174C428.724 313.113 426.332 315.505 423.392 315.505ZM243.038 51.5596C240.228 51.5596 237.941 53.846 237.941 56.6574V310.175C237.941 312.986 240.228 315.273 243.038 315.273H423.392C426.203 315.273 428.489 312.986 428.489 310.175V56.6564C428.489 53.846 426.203 51.5587 423.392 51.5587L243.038 51.5596Z" fill="#EBEBEB"/>
<path d="M59.9479 357.317V312.676H63.7651V291.405H69.3449V217.449H77.4109V207.907L94.6329 199.874V190.253H97.0183V217.449H100.358V291.405H103.698V252.519H112.764V232.479H115.294V291.405H122.179V268.98H126.712V263.254H137.208V243.692H142.957V229.855H150.024V209.696H152.545V229.855H159.611V243.692H165.36V263.254H175.856V268.98H180.39V291.405H185.766V263.254H196.262V202.658H199.602V195.978H222.028V202.658H226.799V246.555H245.885V250.849H253.041V254.189H245.885V271.365H265.924V214.109H270.218V201.942H279.523V158.761H282.146V201.942H288.826V214.109H327.988V210.104H330.374V237.301H333.714V237.779H335.72V264.975H339.06V272.37H346.119V252.331H348.649V300.045H351.465V280.005H353.995V311.257H355.535V288.832H360.067V283.107H370.564V263.544H376.312V249.707H383.379V229.548H385.9V249.707H392.967V263.544H398.715V283.107H409.212V288.832H413.744V310.78H414.558V311.257H416.802V357.317H59.9479Z" fill="#E6E6E6"/>
<path d="M306.137 216.785H303.433V219.489H306.137V216.785Z" fill="#F0F0F0"/>
<path d="M306.137 221.318H303.433V224.022H306.137V221.318Z" fill="#F0F0F0"/>
<path d="M306.137 239.449H303.433V242.153H306.137V239.449Z" fill="#F0F0F0"/>
<path d="M306.137 243.981H303.433V246.685H306.137V243.981Z" fill="#F0F0F0"/>
<path d="M306.137 248.514H303.433V251.218H306.137V248.514Z" fill="#F0F0F0"/>
<path d="M306.137 262.113H303.433V264.817H306.137V262.113Z" fill="#F0F0F0"/>
<path d="M306.137 266.645H303.433V269.349H306.137V266.645Z" fill="#F0F0F0"/>
<path d="M301.844 234.916H299.14V237.62H301.844V234.916Z" fill="#F0F0F0"/>
<path d="M301.844 239.449H299.14V242.153H301.844V239.449Z" fill="#F0F0F0"/>
<path d="M301.844 243.981H299.14V246.685H301.844V243.981Z" fill="#F0F0F0"/>
<path d="M301.844 248.514H299.14V251.218H301.844V248.514Z" fill="#F0F0F0"/>
<path d="M301.844 253.047H299.14V255.751H301.844V253.047Z" fill="#F0F0F0"/>
<path d="M301.844 262.113H299.14V264.817H301.844V262.113Z" fill="#F0F0F0"/>
<path d="M301.844 266.645H299.14V269.349H301.844V266.645Z" fill="#F0F0F0"/>
<path d="M297.549 216.785H294.845V219.489H297.549V216.785Z" fill="#F0F0F0"/>
<path d="M297.549 221.318H294.845V224.022H297.549V221.318Z" fill="#F0F0F0"/>
<path d="M297.549 225.851H294.845V228.554H297.549V225.851Z" fill="#F0F0F0"/>
<path d="M297.549 230.383H294.845V233.087H297.549V230.383Z" fill="#F0F0F0"/>
<path d="M297.549 234.916H294.845V237.62H297.549V234.916Z" fill="#F0F0F0"/>
<path d="M297.549 239.449H294.845V242.153H297.549V239.449Z" fill="#F0F0F0"/>
<path d="M297.549 243.981H294.845V246.685H297.549V243.981Z" fill="#F0F0F0"/>
<path d="M297.549 248.514H294.845V251.218H297.549V248.514Z" fill="#F0F0F0"/>
<path d="M297.549 253.047H294.845V255.751H297.549V253.047Z" fill="#F0F0F0"/>
<path d="M297.549 257.579H294.845V260.283H297.549V257.579Z" fill="#F0F0F0"/>
<path d="M297.549 266.645H294.845V269.349H297.549V266.645Z" fill="#F0F0F0"/>
<path d="M293.255 216.785H290.551V219.489H293.255V216.785Z" fill="#F0F0F0"/>
<path d="M293.255 221.318H290.551V224.022H293.255V221.318Z" fill="#F0F0F0"/>
<path d="M293.255 225.851H290.551V228.554H293.255V225.851Z" fill="#F0F0F0"/>
<path d="M293.255 230.383H290.551V233.087H293.255V230.383Z" fill="#F0F0F0"/>
<path d="M293.255 234.916H290.551V237.62H293.255V234.916Z" fill="#F0F0F0"/>
<path d="M293.255 239.449H290.551V242.153H293.255V239.449Z" fill="#F0F0F0"/>
<path d="M293.255 243.981H290.551V246.685H293.255V243.981Z" fill="#F0F0F0"/>
<path d="M293.255 284.777H290.551V287.481H293.255V284.777Z" fill="#F0F0F0"/>
<path d="M288.961 216.785H286.257V219.489H288.961V216.785Z" fill="#F0F0F0"/>
<path d="M288.961 221.318H286.257V224.022H288.961V221.318Z" fill="#F0F0F0"/>
<path d="M288.961 225.851H286.257V228.554H288.961V225.851Z" fill="#F0F0F0"/>
<path d="M288.961 230.383H286.257V233.087H288.961V230.383Z" fill="#F0F0F0"/>
<path d="M288.961 234.916H286.257V237.62H288.961V234.916Z" fill="#F0F0F0"/>
<path d="M288.961 239.449H286.257V242.153H288.961V239.449Z" fill="#F0F0F0"/>
<path d="M288.961 243.981H286.257V246.685H288.961V243.981Z" fill="#F0F0F0"/>
<path d="M288.961 248.514H286.257V251.218H288.961V248.514Z" fill="#F0F0F0"/>
<path d="M288.961 275.711H286.257V278.415H288.961V275.711Z" fill="#F0F0F0"/>
<path d="M288.961 280.244H286.257V282.948H288.961V280.244Z" fill="#F0F0F0"/>
<path d="M288.961 284.777H286.257V287.481H288.961V284.777Z" fill="#F0F0F0"/>
<path d="M288.961 289.309H286.257V292.013H288.961V289.309Z" fill="#F0F0F0"/>
<path d="M288.961 307.44H286.257V310.144H288.961V307.44Z" fill="#F0F0F0"/>
<path d="M284.666 216.785H281.962V219.489H284.666V216.785Z" fill="#F0F0F0"/>
<path d="M284.666 221.318H281.962V224.022H284.666V221.318Z" fill="#F0F0F0"/>
<path d="M284.666 225.851H281.962V228.554H284.666V225.851Z" fill="#F0F0F0"/>
<path d="M284.666 230.383H281.962V233.087H284.666V230.383Z" fill="#F0F0F0"/>
<path d="M284.666 234.916H281.962V237.62H284.666V234.916Z" fill="#F0F0F0"/>
<path d="M284.666 239.449H281.962V242.153H284.666V239.449Z" fill="#F0F0F0"/>
<path d="M284.666 243.981H281.962V246.685H284.666V243.981Z" fill="#F0F0F0"/>
<path d="M284.666 248.514H281.962V251.218H284.666V248.514Z" fill="#F0F0F0"/>
<path d="M284.666 253.047H281.962V255.751H284.666V253.047Z" fill="#F0F0F0"/>
<path d="M284.666 257.579H281.962V260.283H284.666V257.579Z" fill="#F0F0F0"/>
<path d="M284.666 271.178H281.962V273.882H284.666V271.178Z" fill="#F0F0F0"/>
<path d="M284.666 275.711H281.962V278.415H284.666V275.711Z" fill="#F0F0F0"/>
<path d="M284.666 280.244H281.962V282.948H284.666V280.244Z" fill="#F0F0F0"/>
<path d="M284.666 284.777H281.962V287.481H284.666V284.777Z" fill="#F0F0F0"/>
<path d="M284.666 289.309H281.962V292.013H284.666V289.309Z" fill="#F0F0F0"/>
<path d="M284.666 307.44H281.962V310.144H284.666V307.44Z" fill="#F0F0F0"/>
<path d="M280.372 216.785H277.668V219.489H280.372V216.785Z" fill="#F0F0F0"/>
<path d="M280.372 221.318H277.668V224.022H280.372V221.318Z" fill="#F0F0F0"/>
<path d="M280.372 225.851H277.668V228.554H280.372V225.851Z" fill="#F0F0F0"/>
<path d="M280.372 230.383H277.668V233.087H280.372V230.383Z" fill="#F0F0F0"/>
<path d="M280.372 234.916H277.668V237.62H280.372V234.916Z" fill="#F0F0F0"/>
<path d="M280.372 239.449H277.668V242.153H280.372V239.449Z" fill="#F0F0F0"/>
<path d="M280.372 243.981H277.668V246.685H280.372V243.981Z" fill="#F0F0F0"/>
<path d="M280.372 248.514H277.668V251.218H280.372V248.514Z" fill="#F0F0F0"/>
<path d="M280.372 253.047H277.668V255.751H280.372V253.047Z" fill="#F0F0F0"/>
<path d="M280.372 257.579H277.668V260.283H280.372V257.579Z" fill="#F0F0F0"/>
<path d="M280.372 262.113H277.668V264.817H280.372V262.113Z" fill="#F0F0F0"/>
<path d="M280.372 266.645H277.668V269.349H280.372V266.645Z" fill="#F0F0F0"/>
<path d="M280.372 271.178H277.668V273.882H280.372V271.178Z" fill="#F0F0F0"/>
<path d="M280.372 275.711H277.668V278.415H280.372V275.711Z" fill="#F0F0F0"/>
<path d="M280.372 280.244H277.668V282.948H280.372V280.244Z" fill="#F0F0F0"/>
<path d="M280.372 284.777H277.668V287.481H280.372V284.777Z" fill="#F0F0F0"/>
<path d="M280.372 289.309H277.668V292.013H280.372V289.309Z" fill="#F0F0F0"/>
<path d="M280.372 293.842H277.668V296.546H280.372V293.842Z" fill="#F0F0F0"/>
<path d="M276.078 216.785H273.374V219.489H276.078V216.785Z" fill="#F0F0F0"/>
<path d="M276.078 221.318H273.374V224.022H276.078V221.318Z" fill="#F0F0F0"/>
<path d="M276.078 225.851H273.374V228.554H276.078V225.851Z" fill="#F0F0F0"/>
<path d="M276.078 230.383H273.374V233.087H276.078V230.383Z" fill="#F0F0F0"/>
<path d="M276.078 234.916H273.374V237.62H276.078V234.916Z" fill="#F0F0F0"/>
<path d="M276.078 239.449H273.374V242.153H276.078V239.449Z" fill="#F0F0F0"/>
<path d="M276.078 243.981H273.374V246.685H276.078V243.981Z" fill="#F0F0F0"/>
<path d="M276.078 248.514H273.374V251.218H276.078V248.514Z" fill="#F0F0F0"/>
<path d="M276.078 253.047H273.374V255.751H276.078V253.047Z" fill="#F0F0F0"/>
<path d="M276.078 257.579H273.374V260.283H276.078V257.579Z" fill="#F0F0F0"/>
<path d="M276.078 271.178H273.374V273.882H276.078V271.178Z" fill="#F0F0F0"/>
<path d="M276.078 275.711H273.374V278.415H276.078V275.711Z" fill="#F0F0F0"/>
<path d="M276.078 280.244H273.374V282.948H276.078V280.244Z" fill="#F0F0F0"/>
<path d="M276.078 284.777H273.374V287.481H276.078V284.777Z" fill="#F0F0F0"/>
<path d="M271.784 216.785H269.08V219.489H271.784V216.785Z" fill="#F0F0F0"/>
<path d="M271.784 221.318H269.08V224.022H271.784V221.318Z" fill="#F0F0F0"/>
<path d="M271.784 225.851H269.08V228.554H271.784V225.851Z" fill="#F0F0F0"/>
<path d="M271.784 230.383H269.08V233.087H271.784V230.383Z" fill="#F0F0F0"/>
<path d="M271.784 234.916H269.08V237.62H271.784V234.916Z" fill="#F0F0F0"/>
<path d="M271.784 239.449H269.08V242.153H271.784V239.449Z" fill="#F0F0F0"/>
<path d="M271.784 243.981H269.08V246.685H271.784V243.981Z" fill="#F0F0F0"/>
<path d="M271.784 248.514H269.08V251.218H271.784V248.514Z" fill="#F0F0F0"/>
<path d="M271.784 253.047H269.08V255.751H271.784V253.047Z" fill="#F0F0F0"/>
<path d="M271.784 257.579H269.08V260.283H271.784V257.579Z" fill="#F0F0F0"/>
<path d="M271.784 271.178H269.08V273.882H271.784V271.178Z" fill="#F0F0F0"/>
<path d="M271.784 275.711H269.08V278.415H271.784V275.711Z" fill="#F0F0F0"/>
<path d="M271.784 280.244H269.08V282.948H271.784V280.244Z" fill="#F0F0F0"/>
<path d="M223.434 205.016H220.73V207.72H223.434V205.016Z" fill="#F0F0F0"/>
<path d="M223.434 209.548H220.73V212.252H223.434V209.548Z" fill="#F0F0F0"/>
<path d="M223.434 214.081H220.73V216.785H223.434V214.081Z" fill="#F0F0F0"/>
<path d="M223.434 218.614H220.73V221.318H223.434V218.614Z" fill="#F0F0F0"/>
<path d="M223.434 223.147H220.73V225.851H223.434V223.147Z" fill="#F0F0F0"/>
<path d="M223.434 227.679H220.73V230.383H223.434V227.679Z" fill="#F0F0F0"/>
<path d="M223.434 232.212H220.73V234.916H223.434V232.212Z" fill="#F0F0F0"/>
<path d="M223.434 236.745H220.73V239.449H223.434V236.745Z" fill="#F0F0F0"/>
<path d="M223.434 250.344H220.73V253.048H223.434V250.344Z" fill="#F0F0F0"/>
<path d="M223.434 254.876H220.73V257.58H223.434V254.876Z" fill="#F0F0F0"/>
<path d="M219.14 205.016H216.436V207.72H219.14V205.016Z" fill="#F0F0F0"/>
<path d="M219.14 209.548H216.436V212.252H219.14V209.548Z" fill="#F0F0F0"/>
<path d="M219.14 214.081H216.436V216.785H219.14V214.081Z" fill="#F0F0F0"/>
<path d="M219.14 218.614H216.436V221.318H219.14V218.614Z" fill="#F0F0F0"/>
<path d="M219.14 223.147H216.436V225.851H219.14V223.147Z" fill="#F0F0F0"/>
<path d="M219.14 227.679H216.436V230.383H219.14V227.679Z" fill="#F0F0F0"/>
<path d="M219.14 232.212H216.436V234.916H219.14V232.212Z" fill="#F0F0F0"/>
<path d="M219.14 236.745H216.436V239.449H219.14V236.745Z" fill="#F0F0F0"/>
<path d="M219.14 254.876H216.436V257.58H219.14V254.876Z" fill="#F0F0F0"/>
<path d="M214.846 205.016H212.142V207.72H214.846V205.016Z" fill="#F0F0F0"/>
<path d="M214.846 209.548H212.142V212.252H214.846V209.548Z" fill="#F0F0F0"/>
<path d="M214.846 214.081H212.142V216.785H214.846V214.081Z" fill="#F0F0F0"/>
<path d="M214.846 218.614H212.142V221.318H214.846V218.614Z" fill="#F0F0F0"/>
<path d="M214.846 223.147H212.142V225.851H214.846V223.147Z" fill="#F0F0F0"/>
<path d="M214.846 227.679H212.142V230.383H214.846V227.679Z" fill="#F0F0F0"/>
<path d="M214.846 232.212H212.142V234.916H214.846V232.212Z" fill="#F0F0F0"/>
<path d="M214.846 236.745H212.142V239.449H214.846V236.745Z" fill="#F0F0F0"/>
<path d="M210.552 205.016H207.848V207.72H210.552V205.016Z" fill="#F0F0F0"/>
<path d="M210.552 209.548H207.848V212.252H210.552V209.548Z" fill="#F0F0F0"/>
<path d="M210.552 214.081H207.848V216.785H210.552V214.081Z" fill="#F0F0F0"/>
<path d="M210.552 218.614H207.848V221.318H210.552V218.614Z" fill="#F0F0F0"/>
<path d="M210.552 223.147H207.848V225.851H210.552V223.147Z" fill="#F0F0F0"/>
<path d="M210.552 227.679H207.848V230.383H210.552V227.679Z" fill="#F0F0F0"/>
<path d="M210.552 236.745H207.848V239.449H210.552V236.745Z" fill="#F0F0F0"/>
<path d="M210.552 241.277H207.848V243.981H210.552V241.277Z" fill="#F0F0F0"/>
<path d="M210.552 254.876H207.848V257.58H210.552V254.876Z" fill="#F0F0F0"/>
<path d="M210.552 259.409H207.848V262.113H210.552V259.409Z" fill="#F0F0F0"/>
<path d="M210.552 263.942H207.848V266.646H210.552V263.942Z" fill="#F0F0F0"/>
<path d="M210.552 268.475H207.848V271.178H210.552V268.475Z" fill="#F0F0F0"/>
<path d="M210.552 273.007H207.848V275.711H210.552V273.007Z" fill="#F0F0F0"/>
<path d="M210.552 277.54H207.848V280.244H210.552V277.54Z" fill="#F0F0F0"/>
<path d="M210.552 282.073H207.848V284.777H210.552V282.073Z" fill="#F0F0F0"/>
<path d="M206.257 205.016H203.553V207.72H206.257V205.016Z" fill="#F0F0F0"/>
<path d="M206.257 209.548H203.553V212.252H206.257V209.548Z" fill="#F0F0F0"/>
<path d="M206.257 214.081H203.553V216.785H206.257V214.081Z" fill="#F0F0F0"/>
<path d="M206.257 218.614H203.553V221.318H206.257V218.614Z" fill="#F0F0F0"/>
<path d="M206.257 223.147H203.553V225.851H206.257V223.147Z" fill="#F0F0F0"/>
<path d="M206.257 227.679H203.553V230.383H206.257V227.679Z" fill="#F0F0F0"/>
<path d="M206.257 241.277H203.553V243.981H206.257V241.277Z" fill="#F0F0F0"/>
<path d="M206.257 245.81H203.553V248.514H206.257V245.81Z" fill="#F0F0F0"/>
<path d="M206.257 250.344H203.553V253.048H206.257V250.344Z" fill="#F0F0F0"/>
<path d="M206.257 254.876H203.553V257.58H206.257V254.876Z" fill="#F0F0F0"/>
<path d="M206.257 259.409H203.553V262.113H206.257V259.409Z" fill="#F0F0F0"/>
<path d="M206.257 263.942H203.553V266.646H206.257V263.942Z" fill="#F0F0F0"/>
<path d="M206.257 268.475H203.553V271.178H206.257V268.475Z" fill="#F0F0F0"/>
<path d="M206.257 273.007H203.553V275.711H206.257V273.007Z" fill="#F0F0F0"/>
<path d="M206.257 277.54H203.553V280.244H206.257V277.54Z" fill="#F0F0F0"/>
<path d="M206.257 282.073H203.553V284.777H206.257V282.073Z" fill="#F0F0F0"/>
<path d="M206.257 286.605H203.553V289.309H206.257V286.605Z" fill="#F0F0F0"/>
<path d="M206.257 295.672H203.553V298.376H206.257V295.672Z" fill="#F0F0F0"/>
<path d="M201.964 205.016H199.26V207.72H201.964V205.016Z" fill="#F0F0F0"/>
<path d="M201.964 209.548H199.26V212.252H201.964V209.548Z" fill="#F0F0F0"/>
<path d="M201.964 214.081H199.26V216.785H201.964V214.081Z" fill="#F0F0F0"/>
<path d="M201.964 218.614H199.26V221.318H201.964V218.614Z" fill="#F0F0F0"/>
<path d="M201.964 223.147H199.26V225.851H201.964V223.147Z" fill="#F0F0F0"/>
<path d="M201.964 227.679H199.26V230.383H201.964V227.679Z" fill="#F0F0F0"/>
<path d="M201.964 241.277H199.26V243.981H201.964V241.277Z" fill="#F0F0F0"/>
<path d="M201.964 245.81H199.26V248.514H201.964V245.81Z" fill="#F0F0F0"/>
<path d="M201.964 250.344H199.26V253.048H201.964V250.344Z" fill="#F0F0F0"/>
<path d="M201.964 254.876H199.26V257.58H201.964V254.876Z" fill="#F0F0F0"/>
<path d="M201.964 268.475H199.26V271.178H201.964V268.475Z" fill="#F0F0F0"/>
<path d="M201.964 273.007H199.26V275.711H201.964V273.007Z" fill="#F0F0F0"/>
<path d="M201.964 277.54H199.26V280.244H201.964V277.54Z" fill="#F0F0F0"/>
<path d="M201.964 282.073H199.26V284.777H201.964V282.073Z" fill="#F0F0F0"/>
<path d="M201.964 286.605H199.26V289.309H201.964V286.605Z" fill="#F0F0F0"/>
<path d="M201.964 295.672H199.26V298.376H201.964V295.672Z" fill="#F0F0F0"/>
<path d="M201.964 300.204H199.26V302.908H201.964V300.204Z" fill="#F0F0F0"/>
<path d="M162.997 247.163H160.293V249.866H162.997V247.163Z" fill="#F0F0F0"/>
<path d="M162.997 251.695H160.293V254.399H162.997V251.695Z" fill="#F0F0F0"/>
<path d="M162.997 256.228H160.293V258.932H162.997V256.228Z" fill="#F0F0F0"/>
<path d="M162.997 260.761H160.293V263.465H162.997V260.761Z" fill="#F0F0F0"/>
<path d="M162.997 265.293H160.293V267.997H162.997V265.293Z" fill="#F0F0F0"/>
<path d="M162.997 269.826H160.293V272.53H162.997V269.826Z" fill="#F0F0F0"/>
<path d="M162.997 274.359H160.293V277.063H162.997V274.359Z" fill="#F0F0F0"/>
<path d="M162.997 287.958H160.293V290.662H162.997V287.958Z" fill="#F0F0F0"/>
<path d="M162.997 292.49H160.293V295.194H162.997V292.49Z" fill="#F0F0F0"/>
<path d="M162.997 297.023H160.293V299.727H162.997V297.023Z" fill="#F0F0F0"/>
<path d="M158.703 247.163H156V249.866H158.703V247.163Z" fill="#F0F0F0"/>
<path d="M158.703 251.695H156V254.399H158.703V251.695Z" fill="#F0F0F0"/>
<path d="M158.703 256.228H156V258.932H158.703V256.228Z" fill="#F0F0F0"/>
<path d="M158.703 260.761H156V263.465H158.703V260.761Z" fill="#F0F0F0"/>
<path d="M158.703 265.293H156V267.997H158.703V265.293Z" fill="#F0F0F0"/>
<path d="M158.703 269.826H156V272.53H158.703V269.826Z" fill="#F0F0F0"/>
<path d="M158.703 274.359H156V277.063H158.703V274.359Z" fill="#F0F0F0"/>
<path d="M154.409 247.163H151.705V249.866H154.409V247.163Z" fill="#F0F0F0"/>
<path d="M154.409 251.695H151.705V254.399H154.409V251.695Z" fill="#F0F0F0"/>
<path d="M154.409 256.228H151.705V258.932H154.409V256.228Z" fill="#F0F0F0"/>
<path d="M154.409 260.761H151.705V263.465H154.409V260.761Z" fill="#F0F0F0"/>
<path d="M154.409 265.293H151.705V267.997H154.409V265.293Z" fill="#F0F0F0"/>
<path d="M154.409 269.826H151.705V272.53H154.409V269.826Z" fill="#F0F0F0"/>
<path d="M154.409 274.359H151.705V277.063H154.409V274.359Z" fill="#F0F0F0"/>
<path d="M150.114 247.163H147.41V249.866H150.114V247.163Z" fill="#F0F0F0"/>
<path d="M150.114 251.695H147.41V254.399H150.114V251.695Z" fill="#F0F0F0"/>
<path d="M150.114 256.228H147.41V258.932H150.114V256.228Z" fill="#F0F0F0"/>
<path d="M150.114 260.761H147.41V263.465H150.114V260.761Z" fill="#F0F0F0"/>
<path d="M150.114 265.293H147.41V267.997H150.114V265.293Z" fill="#F0F0F0"/>
<path d="M150.114 269.826H147.41V272.53H150.114V269.826Z" fill="#F0F0F0"/>
<path d="M150.114 274.359H147.41V277.063H150.114V274.359Z" fill="#F0F0F0"/>
<path d="M150.114 278.891H147.41V281.595H150.114V278.891Z" fill="#F0F0F0"/>
<path d="M150.114 283.425H147.41V286.129H150.114V283.425Z" fill="#F0F0F0"/>
<path d="M150.114 287.958H147.41V290.662H150.114V287.958Z" fill="#F0F0F0"/>
<path d="M150.114 292.49H147.41V295.194H150.114V292.49Z" fill="#F0F0F0"/>
<path d="M145.821 247.163H143.117V249.866H145.821V247.163Z" fill="#F0F0F0"/>
<path d="M145.821 251.695H143.117V254.399H145.821V251.695Z" fill="#F0F0F0"/>
<path d="M145.821 256.228H143.117V258.932H145.821V256.228Z" fill="#F0F0F0"/>
<path d="M145.821 260.761H143.117V263.465H145.821V260.761Z" fill="#F0F0F0"/>
<path d="M145.821 265.293H143.117V267.997H145.821V265.293Z" fill="#F0F0F0"/>
<path d="M145.821 269.826H143.117V272.53H145.821V269.826Z" fill="#F0F0F0"/>
<path d="M145.821 274.359H143.117V277.063H145.821V274.359Z" fill="#F0F0F0"/>
<path d="M145.821 278.891H143.117V281.595H145.821V278.891Z" fill="#F0F0F0"/>
<path d="M145.821 283.425H143.117V286.129H145.821V283.425Z" fill="#F0F0F0"/>
<path d="M145.821 287.958H143.117V290.662H145.821V287.958Z" fill="#F0F0F0"/>
<path d="M145.821 292.49H143.117V295.194H145.821V292.49Z" fill="#F0F0F0"/>
<path d="M145.821 297.023H143.117V299.727H145.821V297.023Z" fill="#F0F0F0"/>
<path d="M145.821 310.621H143.117V313.325H145.821V310.621Z" fill="#F0F0F0"/>
<path d="M145.821 315.154H143.117V317.858H145.821V315.154Z" fill="#F0F0F0"/>
<path d="M141.526 247.163H138.822V249.866H141.526V247.163Z" fill="#F0F0F0"/>
<path d="M141.526 251.695H138.822V254.399H141.526V251.695Z" fill="#F0F0F0"/>
<path d="M141.526 256.228H138.822V258.932H141.526V256.228Z" fill="#F0F0F0"/>
<path d="M141.526 269.826H138.822V272.53H141.526V269.826Z" fill="#F0F0F0"/>
<path d="M141.526 274.359H138.822V277.063H141.526V274.359Z" fill="#F0F0F0"/>
<path d="M141.526 278.891H138.822V281.595H141.526V278.891Z" fill="#F0F0F0"/>
<path d="M141.526 283.425H138.822V286.129H141.526V283.425Z" fill="#F0F0F0"/>
<path d="M141.526 287.958H138.822V290.662H141.526V287.958Z" fill="#F0F0F0"/>
<path d="M141.526 292.49H138.822V295.194H141.526V292.49Z" fill="#F0F0F0"/>
<path d="M141.526 297.023H138.822V299.727H141.526V297.023Z" fill="#F0F0F0"/>
<path d="M141.526 310.621H138.822V313.325H141.526V310.621Z" fill="#F0F0F0"/>
<path d="M141.526 315.154H138.822V317.858H141.526V315.154Z" fill="#F0F0F0"/>
<path d="M141.526 319.687H138.822V322.391H141.526V319.687Z" fill="#F0F0F0"/>
<path d="M96.5168 219.966H93.8129V222.67H96.5168V219.966Z" fill="#F0F0F0"/>
<path d="M96.5168 224.499H93.8129V227.203H96.5168V224.499Z" fill="#F0F0F0"/>
<path d="M96.5168 229.032H93.8129V231.736H96.5168V229.032Z" fill="#F0F0F0"/>
<path d="M96.5168 233.564H93.8129V236.268H96.5168V233.564Z" fill="#F0F0F0"/>
<path d="M96.5168 238.097H93.8129V240.801H96.5168V238.097Z" fill="#F0F0F0"/>
<path d="M96.5168 242.63H93.8129V245.334H96.5168V242.63Z" fill="#F0F0F0"/>
<path d="M96.5168 247.163H93.8129V249.866H96.5168V247.163Z" fill="#F0F0F0"/>
<path d="M96.5168 251.695H93.8129V254.399H96.5168V251.695Z" fill="#F0F0F0"/>
<path d="M96.5168 256.228H93.8129V258.932H96.5168V256.228Z" fill="#F0F0F0"/>
<path d="M96.5168 260.761H93.8129V263.465H96.5168V260.761Z" fill="#F0F0F0"/>
<path d="M96.5168 265.293H93.8129V267.997H96.5168V265.293Z" fill="#F0F0F0"/>
<path d="M96.5168 269.826H93.8129V272.53H96.5168V269.826Z" fill="#F0F0F0"/>
<path d="M96.5168 274.359H93.8129V277.063H96.5168V274.359Z" fill="#F0F0F0"/>
<path d="M96.5168 278.891H93.8129V281.595H96.5168V278.891Z" fill="#F0F0F0"/>
<path d="M96.5168 283.425H93.8129V286.129H96.5168V283.425Z" fill="#F0F0F0"/>
<path d="M96.5168 287.958H93.8129V290.662H96.5168V287.958Z" fill="#F0F0F0"/>
<path d="M96.5168 292.49H93.8129V295.194H96.5168V292.49Z" fill="#F0F0F0"/>
<path d="M96.5168 297.023H93.8129V299.727H96.5168V297.023Z" fill="#F0F0F0"/>
<path d="M96.5168 301.556H93.8129V304.26H96.5168V301.556Z" fill="#F0F0F0"/>
<path d="M96.5168 306.089H93.8129V308.793H96.5168V306.089Z" fill="#F0F0F0"/>
<path d="M96.5168 310.621H93.8129V313.325H96.5168V310.621Z" fill="#F0F0F0"/>
<path d="M96.5168 315.154H93.8129V317.858H96.5168V315.154Z" fill="#F0F0F0"/>
<path d="M96.5168 319.687H93.8129V322.391H96.5168V319.687Z" fill="#F0F0F0"/>
<path d="M92.2222 219.966H89.5183V222.67H92.2222V219.966Z" fill="#F0F0F0"/>
<path d="M92.2222 224.499H89.5183V227.203H92.2222V224.499Z" fill="#F0F0F0"/>
<path d="M92.2222 229.032H89.5183V231.736H92.2222V229.032Z" fill="#F0F0F0"/>
<path d="M92.2222 233.564H89.5183V236.268H92.2222V233.564Z" fill="#F0F0F0"/>
<path d="M92.2222 238.097H89.5183V240.801H92.2222V238.097Z" fill="#F0F0F0"/>
<path d="M92.2222 242.63H89.5183V245.334H92.2222V242.63Z" fill="#F0F0F0"/>
<path d="M92.2222 247.163H89.5183V249.866H92.2222V247.163Z" fill="#F0F0F0"/>
<path d="M92.2222 251.695H89.5183V254.399H92.2222V251.695Z" fill="#F0F0F0"/>
<path d="M92.2222 256.228H89.5183V258.932H92.2222V256.228Z" fill="#F0F0F0"/>
<path d="M92.2222 260.761H89.5183V263.465H92.2222V260.761Z" fill="#F0F0F0"/>
<path d="M92.2222 265.293H89.5183V267.997H92.2222V265.293Z" fill="#F0F0F0"/>
<path d="M92.2222 269.826H89.5183V272.53H92.2222V269.826Z" fill="#F0F0F0"/>
<path d="M92.2222 274.359H89.5183V277.063H92.2222V274.359Z" fill="#F0F0F0"/>
<path d="M92.2222 278.891H89.5183V281.595H92.2222V278.891Z" fill="#F0F0F0"/>
<path d="M92.2222 283.425H89.5183V286.129H92.2222V283.425Z" fill="#F0F0F0"/>
<path d="M92.2222 287.958H89.5183V290.662H92.2222V287.958Z" fill="#F0F0F0"/>
<path d="M92.2222 292.49H89.5183V295.194H92.2222V292.49Z" fill="#F0F0F0"/>
<path d="M92.2222 297.023H89.5183V299.727H92.2222V297.023Z" fill="#F0F0F0"/>
<path d="M92.2222 301.556H89.5183V304.26H92.2222V301.556Z" fill="#F0F0F0"/>
<path d="M87.9277 219.966H85.2238V222.67H87.9277V219.966Z" fill="#F0F0F0"/>
<path d="M87.9277 224.499H85.2238V227.203H87.9277V224.499Z" fill="#F0F0F0"/>
<path d="M87.9277 229.032H85.2238V231.736H87.9277V229.032Z" fill="#F0F0F0"/>
<path d="M87.9277 233.564H85.2238V236.268H87.9277V233.564Z" fill="#F0F0F0"/>
<path d="M87.9277 238.097H85.2238V240.801H87.9277V238.097Z" fill="#F0F0F0"/>
<path d="M87.9277 242.63H85.2238V245.334H87.9277V242.63Z" fill="#F0F0F0"/>
<path d="M87.9277 247.163H85.2238V249.866H87.9277V247.163Z" fill="#F0F0F0"/>
<path d="M87.9277 251.695H85.2238V254.399H87.9277V251.695Z" fill="#F0F0F0"/>
<path d="M87.9277 256.228H85.2238V258.932H87.9277V256.228Z" fill="#F0F0F0"/>
<path d="M87.9277 260.761H85.2238V263.465H87.9277V260.761Z" fill="#F0F0F0"/>
<path d="M87.9277 265.293H85.2238V267.997H87.9277V265.293Z" fill="#F0F0F0"/>
<path d="M87.9277 269.826H85.2238V272.53H87.9277V269.826Z" fill="#F0F0F0"/>
<path d="M87.9277 274.359H85.2238V277.063H87.9277V274.359Z" fill="#F0F0F0"/>
<path d="M87.9277 278.891H85.2238V281.595H87.9277V278.891Z" fill="#F0F0F0"/>
<path d="M87.9277 283.425H85.2238V286.129H87.9277V283.425Z" fill="#F0F0F0"/>
<path d="M87.9277 287.958H85.2238V290.662H87.9277V287.958Z" fill="#F0F0F0"/>
<path d="M87.9277 292.49H85.2238V295.194H87.9277V292.49Z" fill="#F0F0F0"/>
<path d="M87.9277 297.023H85.2238V299.727H87.9277V297.023Z" fill="#F0F0F0"/>
<path d="M87.9277 301.556H85.2238V304.26H87.9277V301.556Z" fill="#F0F0F0"/>
<path d="M83.6341 219.966H80.9302V222.67H83.6341V219.966Z" fill="#F0F0F0"/>
<path d="M83.6341 224.499H80.9302V227.203H83.6341V224.499Z" fill="#F0F0F0"/>
<path d="M83.6341 229.032H80.9302V231.736H83.6341V229.032Z" fill="#F0F0F0"/>
<path d="M83.6341 233.564H80.9302V236.268H83.6341V233.564Z" fill="#F0F0F0"/>
<path d="M83.6341 238.097H80.9302V240.801H83.6341V238.097Z" fill="#F0F0F0"/>
<path d="M83.6341 242.63H80.9302V245.334H83.6341V242.63Z" fill="#F0F0F0"/>
<path d="M83.6341 247.163H80.9302V249.866H83.6341V247.163Z" fill="#F0F0F0"/>
<path d="M83.6341 251.695H80.9302V254.399H83.6341V251.695Z" fill="#F0F0F0"/>
<path d="M83.6341 256.228H80.9302V258.932H83.6341V256.228Z" fill="#F0F0F0"/>
<path d="M83.6341 260.761H80.9302V263.465H83.6341V260.761Z" fill="#F0F0F0"/>
<path d="M83.6341 265.293H80.9302V267.997H83.6341V265.293Z" fill="#F0F0F0"/>
<path d="M83.6341 269.826H80.9302V272.53H83.6341V269.826Z" fill="#F0F0F0"/>
<path d="M83.6341 274.359H80.9302V277.063H83.6341V274.359Z" fill="#F0F0F0"/>
<path d="M83.6341 278.891H80.9302V281.595H83.6341V278.891Z" fill="#F0F0F0"/>
<path d="M83.6341 283.425H80.9302V286.129H83.6341V283.425Z" fill="#F0F0F0"/>
<path d="M79.3396 219.966H76.6357V222.67H79.3396V219.966Z" fill="#F0F0F0"/>
<path d="M79.3396 224.499H76.6357V227.203H79.3396V224.499Z" fill="#F0F0F0"/>
<path d="M79.3396 229.032H76.6357V231.736H79.3396V229.032Z" fill="#F0F0F0"/>
<path d="M79.3396 233.564H76.6357V236.268H79.3396V233.564Z" fill="#F0F0F0"/>
<path d="M79.3396 238.097H76.6357V240.801H79.3396V238.097Z" fill="#F0F0F0"/>
<path d="M79.3396 242.63H76.6357V245.334H79.3396V242.63Z" fill="#F0F0F0"/>
<path d="M79.3396 247.163H76.6357V249.866H79.3396V247.163Z" fill="#F0F0F0"/>
<path d="M79.3396 251.695H76.6357V254.399H79.3396V251.695Z" fill="#F0F0F0"/>
<path d="M79.3396 256.228H76.6357V258.932H79.3396V256.228Z" fill="#F0F0F0"/>
<path d="M79.3396 260.761H76.6357V263.465H79.3396V260.761Z" fill="#F0F0F0"/>
<path d="M79.3396 265.293H76.6357V267.997H79.3396V265.293Z" fill="#F0F0F0"/>
<path d="M79.3396 269.826H76.6357V272.53H79.3396V269.826Z" fill="#F0F0F0"/>
<path d="M79.3396 274.359H76.6357V277.063H79.3396V274.359Z" fill="#F0F0F0"/>
<path d="M75.0451 219.966H72.3411V222.67H75.0451V219.966Z" fill="#F0F0F0"/>
<path d="M75.0451 224.499H72.3411V227.203H75.0451V224.499Z" fill="#F0F0F0"/>
<path d="M75.0451 229.032H72.3411V231.736H75.0451V229.032Z" fill="#F0F0F0"/>
<path d="M75.0451 233.564H72.3411V236.268H75.0451V233.564Z" fill="#F0F0F0"/>
<path d="M75.0451 238.097H72.3411V240.801H75.0451V238.097Z" fill="#F0F0F0"/>
<path d="M75.0451 242.63H72.3411V245.334H75.0451V242.63Z" fill="#F0F0F0"/>
<path d="M75.0451 247.163H72.3411V249.866H75.0451V247.163Z" fill="#F0F0F0"/>
<path d="M75.0451 251.695H72.3411V254.399H75.0451V251.695Z" fill="#F0F0F0"/>
<path d="M75.0451 256.228H72.3411V258.932H75.0451V256.228Z" fill="#F0F0F0"/>
<path d="M75.0451 260.761H72.3411V263.465H75.0451V260.761Z" fill="#F0F0F0"/>
<path d="M75.0451 265.293H72.3411V267.997H75.0451V265.293Z" fill="#F0F0F0"/>
<path d="M75.0451 269.826H72.3411V272.53H75.0451V269.826Z" fill="#F0F0F0"/>
<path d="M390.59 253.047H387.886V255.751H390.59V253.047Z" fill="#F0F0F0"/>
<path d="M390.59 257.579H387.886V260.283H390.59V257.579Z" fill="#F0F0F0"/>
<path d="M390.59 262.113H387.886V264.817H390.59V262.113Z" fill="#F0F0F0"/>
<path d="M390.59 266.645H387.886V269.349H390.59V266.645Z" fill="#F0F0F0"/>
<path d="M390.59 271.178H387.886V273.882H390.59V271.178Z" fill="#F0F0F0"/>
<path d="M390.59 275.711H387.886V278.415H390.59V275.711Z" fill="#F0F0F0"/>
<path d="M390.59 280.244H387.886V282.948H390.59V280.244Z" fill="#F0F0F0"/>
<path d="M390.59 284.777H387.886V287.481H390.59V284.777Z" fill="#F0F0F0"/>
<path d="M390.59 289.309H387.886V292.013H390.59V289.309Z" fill="#F0F0F0"/>
<path d="M390.59 293.842H387.886V296.546H390.59V293.842Z" fill="#F0F0F0"/>
<path d="M390.59 298.375H387.886V301.079H390.59V298.375Z" fill="#F0F0F0"/>
<path d="M390.59 302.907H387.886V305.611H390.59V302.907Z" fill="#F0F0F0"/>
<path d="M390.59 307.44H387.886V310.144H390.59V307.44Z" fill="#F0F0F0"/>
<path d="M390.59 311.974H387.886V314.678H390.59V311.974Z" fill="#F0F0F0"/>
<path d="M390.59 316.505H387.886V319.209H390.59V316.505Z" fill="#F0F0F0"/>
<path d="M390.59 321.039H387.886V323.743H390.59V321.039Z" fill="#F0F0F0"/>
<path d="M390.59 325.572H387.886V328.276H390.59V325.572Z" fill="#F0F0F0"/>
<path d="M390.59 330.105H387.886V332.808H390.59V330.105Z" fill="#F0F0F0"/>
<path d="M390.59 334.637H387.886V337.341H390.59V334.637Z" fill="#F0F0F0"/>
<path d="M390.59 339.17H387.886V341.874H390.59V339.17Z" fill="#F0F0F0"/>
<path d="M386.296 253.047H383.592V255.751H386.296V253.047Z" fill="#F0F0F0"/>
<path d="M386.296 257.579H383.592V260.283H386.296V257.579Z" fill="#F0F0F0"/>
<path d="M386.296 262.113H383.592V264.817H386.296V262.113Z" fill="#F0F0F0"/>
<path d="M386.296 266.645H383.592V269.349H386.296V266.645Z" fill="#F0F0F0"/>
<path d="M386.296 271.178H383.592V273.882H386.296V271.178Z" fill="#F0F0F0"/>
<path d="M386.296 275.711H383.592V278.415H386.296V275.711Z" fill="#F0F0F0"/>
<path d="M386.296 280.244H383.592V282.948H386.296V280.244Z" fill="#F0F0F0"/>
<path d="M386.296 284.777H383.592V287.481H386.296V284.777Z" fill="#F0F0F0"/>
<path d="M386.296 289.309H383.592V292.013H386.296V289.309Z" fill="#F0F0F0"/>
<path d="M386.296 293.842H383.592V296.546H386.296V293.842Z" fill="#F0F0F0"/>
<path d="M386.296 298.375H383.592V301.079H386.296V298.375Z" fill="#F0F0F0"/>
<path d="M386.296 302.907H383.592V305.611H386.296V302.907Z" fill="#F0F0F0"/>
<path d="M386.296 307.44H383.592V310.144H386.296V307.44Z" fill="#F0F0F0"/>
<path d="M386.296 311.974H383.592V314.678H386.296V311.974Z" fill="#F0F0F0"/>
<path d="M386.296 316.505H383.592V319.209H386.296V316.505Z" fill="#F0F0F0"/>
<path d="M386.296 321.039H383.592V323.743H386.296V321.039Z" fill="#F0F0F0"/>
<path d="M386.296 325.572H383.592V328.276H386.296V325.572Z" fill="#F0F0F0"/>
<path d="M386.296 330.105H383.592V332.808H386.296V330.105Z" fill="#F0F0F0"/>
<path d="M382.002 253.047H379.298V255.751H382.002V253.047Z" fill="#F0F0F0"/>
<path d="M382.002 257.579H379.298V260.283H382.002V257.579Z" fill="#F0F0F0"/>
<path d="M382.002 262.113H379.298V264.817H382.002V262.113Z" fill="#F0F0F0"/>
<path d="M382.002 266.645H379.298V269.349H382.002V266.645Z" fill="#F0F0F0"/>
<path d="M382.002 271.178H379.298V273.882H382.002V271.178Z" fill="#F0F0F0"/>
<path d="M382.002 275.711H379.298V278.415H382.002V275.711Z" fill="#F0F0F0"/>
<path d="M382.002 280.244H379.298V282.948H382.002V280.244Z" fill="#F0F0F0"/>
<path d="M382.002 284.777H379.298V287.481H382.002V284.777Z" fill="#F0F0F0"/>
<path d="M382.002 289.309H379.298V292.013H382.002V289.309Z" fill="#F0F0F0"/>
<path d="M382.002 293.842H379.298V296.546H382.002V293.842Z" fill="#F0F0F0"/>
<path d="M382.002 298.375H379.298V301.079H382.002V298.375Z" fill="#F0F0F0"/>
<path d="M382.002 302.907H379.298V305.611H382.002V302.907Z" fill="#F0F0F0"/>
<path d="M382.002 307.44H379.298V310.144H382.002V307.44Z" fill="#F0F0F0"/>
<path d="M382.002 311.974H379.298V314.678H382.002V311.974Z" fill="#F0F0F0"/>
<path d="M382.002 316.505H379.298V319.209H382.002V316.505Z" fill="#F0F0F0"/>
<path d="M382.002 321.039H379.298V323.743H382.002V321.039Z" fill="#F0F0F0"/>
<path d="M382.002 325.572H379.298V328.276H382.002V325.572Z" fill="#F0F0F0"/>
<path d="M382.002 330.105H379.298V332.808H382.002V330.105Z" fill="#F0F0F0"/>
<path d="M406.654 286.128H403.95V288.832H406.654V286.128Z" fill="#F0F0F0"/>
<path d="M406.654 290.661H403.95V293.365H406.654V290.661Z" fill="#F0F0F0"/>
<path d="M406.654 295.194H403.95V297.898H406.654V295.194Z" fill="#F0F0F0"/>
<path d="M406.654 299.727H403.95V302.431H406.654V299.727Z" fill="#F0F0F0"/>
<path d="M406.654 304.26H403.95V306.964H406.654V304.26Z" fill="#F0F0F0"/>
<path d="M406.654 308.793H403.95V311.496H406.654V308.793Z" fill="#F0F0F0"/>
<path d="M406.654 313.325H403.95V316.029H406.654V313.325Z" fill="#F0F0F0"/>
<path d="M406.654 317.858H403.95V320.562H406.654V317.858Z" fill="#F0F0F0"/>
<path d="M406.654 322.391H403.95V325.095H406.654V322.391Z" fill="#F0F0F0"/>
<path d="M406.654 326.923H403.95V329.627H406.654V326.923Z" fill="#F0F0F0"/>
<path d="M406.654 331.456H403.95V334.16H406.654V331.456Z" fill="#F0F0F0"/>
<path d="M406.654 335.989H403.95V338.693H406.654V335.989Z" fill="#F0F0F0"/>
<path d="M406.654 340.521H403.95V343.225H406.654V340.521Z" fill="#F0F0F0"/>
<path d="M402.36 286.128H399.656V288.832H402.36V286.128Z" fill="#F0F0F0"/>
<path d="M402.36 290.661H399.656V293.365H402.36V290.661Z" fill="#F0F0F0"/>
<path d="M402.36 295.194H399.656V297.898H402.36V295.194Z" fill="#F0F0F0"/>
<path d="M402.36 299.727H399.656V302.431H402.36V299.727Z" fill="#F0F0F0"/>
<path d="M402.36 304.26H399.656V306.964H402.36V304.26Z" fill="#F0F0F0"/>
<path d="M402.36 308.793H399.656V311.496H402.36V308.793Z" fill="#F0F0F0"/>
<path d="M402.36 313.325H399.656V316.029H402.36V313.325Z" fill="#F0F0F0"/>
<path d="M402.36 317.858H399.656V320.562H402.36V317.858Z" fill="#F0F0F0"/>
<path d="M402.36 322.391H399.656V325.095H402.36V322.391Z" fill="#F0F0F0"/>
<path d="M402.36 326.923H399.656V329.627H402.36V326.923Z" fill="#F0F0F0"/>
<path d="M402.36 331.456H399.656V334.16H402.36V331.456Z" fill="#F0F0F0"/>
<path d="M402.36 335.989H399.656V338.693H402.36V335.989Z" fill="#F0F0F0"/>
<path d="M402.36 340.521H399.656V343.225H402.36V340.521Z" fill="#F0F0F0"/>
<path d="M398.065 286.128H395.361V288.832H398.065V286.128Z" fill="#F0F0F0"/>
<path d="M398.065 290.661H395.361V293.365H398.065V290.661Z" fill="#F0F0F0"/>
<path d="M398.065 295.194H395.361V297.898H398.065V295.194Z" fill="#F0F0F0"/>
<path d="M398.065 299.727H395.361V302.431H398.065V299.727Z" fill="#F0F0F0"/>
<path d="M398.065 304.26H395.361V306.964H398.065V304.26Z" fill="#F0F0F0"/>
<path d="M398.065 308.793H395.361V311.496H398.065V308.793Z" fill="#F0F0F0"/>
<path d="M398.065 313.325H395.361V316.029H398.065V313.325Z" fill="#F0F0F0"/>
<path d="M398.065 317.858H395.361V320.562H398.065V317.858Z" fill="#F0F0F0"/>
<path d="M398.065 322.391H395.361V325.095H398.065V322.391Z" fill="#F0F0F0"/>
<path d="M398.065 326.923H395.361V329.627H398.065V326.923Z" fill="#F0F0F0"/>
<path d="M398.065 331.456H395.361V334.16H398.065V331.456Z" fill="#F0F0F0"/>
<path d="M398.065 335.989H395.361V338.693H398.065V335.989Z" fill="#F0F0F0"/>
<path d="M398.065 340.521H395.361V343.225H398.065V340.521Z" fill="#F0F0F0"/>
<path d="M398.065 345.055H395.361V347.759H398.065V345.055Z" fill="#F0F0F0"/>
<path d="M374.209 287.481H371.505V290.184H374.209V287.481Z" fill="#F0F0F0"/>
<path d="M374.209 292.013H371.505V294.717H374.209V292.013Z" fill="#F0F0F0"/>
<path d="M374.209 296.546H371.505V299.25H374.209V296.546Z" fill="#F0F0F0"/>
<path d="M374.209 301.079H371.505V303.783H374.209V301.079Z" fill="#F0F0F0"/>
<path d="M374.209 305.611H371.505V308.315H374.209V305.611Z" fill="#F0F0F0"/>
<path d="M374.209 310.144H371.505V312.848H374.209V310.144Z" fill="#F0F0F0"/>
<path d="M374.209 314.677H371.505V317.381H374.209V314.677Z" fill="#F0F0F0"/>
<path d="M374.209 319.209H371.505V321.913H374.209V319.209Z" fill="#F0F0F0"/>
<path d="M374.209 323.742H371.505V326.446H374.209V323.742Z" fill="#F0F0F0"/>
<path d="M374.209 328.276H371.505V330.98H374.209V328.276Z" fill="#F0F0F0"/>
<path d="M374.209 341.874H371.505V344.578H374.209V341.874Z" fill="#F0F0F0"/>
<path d="M369.914 287.481H367.211V290.184H369.914V287.481Z" fill="#F0F0F0"/>
<path d="M369.914 292.013H367.211V294.717H369.914V292.013Z" fill="#F0F0F0"/>
<path d="M369.914 296.546H367.211V299.25H369.914V296.546Z" fill="#F0F0F0"/>
<path d="M369.914 301.079H367.211V303.783H369.914V301.079Z" fill="#F0F0F0"/>
<path d="M369.914 305.611H367.211V308.315H369.914V305.611Z" fill="#F0F0F0"/>
<path d="M369.914 310.144H367.211V312.848H369.914V310.144Z" fill="#F0F0F0"/>
<path d="M369.914 314.677H367.211V317.381H369.914V314.677Z" fill="#F0F0F0"/>
<path d="M369.914 319.209H367.211V321.913H369.914V319.209Z" fill="#F0F0F0"/>
<path d="M369.914 323.742H367.211V326.446H369.914V323.742Z" fill="#F0F0F0"/>
<path d="M369.914 337.341H367.211V340.045H369.914V337.341Z" fill="#F0F0F0"/>
<path d="M369.914 341.874H367.211V344.578H369.914V341.874Z" fill="#F0F0F0"/>
<path d="M365.62 287.481H362.916V290.184H365.62V287.481Z" fill="#F0F0F0"/>
<path d="M365.62 292.013H362.916V294.717H365.62V292.013Z" fill="#F0F0F0"/>
<path d="M365.62 296.546H362.916V299.25H365.62V296.546Z" fill="#F0F0F0"/>
<path d="M365.62 301.079H362.916V303.783H365.62V301.079Z" fill="#F0F0F0"/>
<path d="M365.62 305.611H362.916V308.315H365.62V305.611Z" fill="#F0F0F0"/>
<path d="M365.62 310.144H362.916V312.848H365.62V310.144Z" fill="#F0F0F0"/>
<path d="M365.62 314.677H362.916V317.381H365.62V314.677Z" fill="#F0F0F0"/>
<path d="M365.62 319.209H362.916V321.913H365.62V319.209Z" fill="#F0F0F0"/>
<path d="M365.62 332.808H362.916V335.512H365.62V332.808Z" fill="#F0F0F0"/>
<path d="M365.62 337.341H362.916V340.045H365.62V337.341Z" fill="#F0F0F0"/>
<path d="M365.62 341.874H362.916V344.578H365.62V341.874Z" fill="#F0F0F0"/>
<path d="M325.7 218.614H322.996V221.318H325.7V218.614Z" fill="#F0F0F0"/>
<path d="M325.7 223.147H322.996V225.851H325.7V223.147Z" fill="#F0F0F0"/>
<path d="M325.7 227.679H322.996V230.383H325.7V227.679Z" fill="#F0F0F0"/>
<path d="M325.7 232.212H322.996V234.916H325.7V232.212Z" fill="#F0F0F0"/>
<path d="M325.7 236.745H322.996V239.449H325.7V236.745Z" fill="#F0F0F0"/>
<path d="M325.7 241.277H322.996V243.981H325.7V241.277Z" fill="#F0F0F0"/>
<path d="M325.7 245.81H322.996V248.514H325.7V245.81Z" fill="#F0F0F0"/>
<path d="M325.7 250.344H322.996V253.048H325.7V250.344Z" fill="#F0F0F0"/>
<path d="M325.7 254.876H322.996V257.58H325.7V254.876Z" fill="#F0F0F0"/>
<path d="M325.7 259.409H322.996V262.113H325.7V259.409Z" fill="#F0F0F0"/>
<path d="M325.7 263.942H322.996V266.646H325.7V263.942Z" fill="#F0F0F0"/>
<path d="M325.7 268.475H322.996V271.178H325.7V268.475Z" fill="#F0F0F0"/>
<path d="M325.7 273.007H322.996V275.711H325.7V273.007Z" fill="#F0F0F0"/>
<path d="M325.7 277.54H322.996V280.244H325.7V277.54Z" fill="#F0F0F0"/>
<path d="M325.7 282.073H322.996V284.777H325.7V282.073Z" fill="#F0F0F0"/>
<path d="M325.7 286.605H322.996V289.309H325.7V286.605Z" fill="#F0F0F0"/>
<path d="M325.7 291.138H322.996V293.842H325.7V291.138Z" fill="#F0F0F0"/>
<path d="M325.7 300.204H322.996V302.908H325.7V300.204Z" fill="#F0F0F0"/>
<path d="M325.7 304.737H322.996V307.441H325.7V304.737Z" fill="#F0F0F0"/>
<path d="M325.7 309.27H322.996V311.974H325.7V309.27Z" fill="#F0F0F0"/>
<path d="M325.7 313.802H322.996V316.506H325.7V313.802Z" fill="#F0F0F0"/>
<path d="M325.7 318.335H322.996V321.039H325.7V318.335Z" fill="#F0F0F0"/>
<path d="M321.406 218.614H318.702V221.318H321.406V218.614Z" fill="#F0F0F0"/>
<path d="M321.406 223.147H318.702V225.851H321.406V223.147Z" fill="#F0F0F0"/>
<path d="M321.406 227.679H318.702V230.383H321.406V227.679Z" fill="#F0F0F0"/>
<path d="M321.406 232.212H318.702V234.916H321.406V232.212Z" fill="#F0F0F0"/>
<path d="M321.406 236.745H318.702V239.449H321.406V236.745Z" fill="#F0F0F0"/>
<path d="M321.406 241.277H318.702V243.981H321.406V241.277Z" fill="#F0F0F0"/>
<path d="M321.406 245.81H318.702V248.514H321.406V245.81Z" fill="#F0F0F0"/>
<path d="M321.406 250.344H318.702V253.048H321.406V250.344Z" fill="#F0F0F0"/>
<path d="M321.406 254.876H318.702V257.58H321.406V254.876Z" fill="#F0F0F0"/>
<path d="M321.406 259.409H318.702V262.113H321.406V259.409Z" fill="#F0F0F0"/>
<path d="M321.406 263.942H318.702V266.646H321.406V263.942Z" fill="#F0F0F0"/>
<path d="M321.406 268.475H318.702V271.178H321.406V268.475Z" fill="#F0F0F0"/>
<path d="M321.406 273.007H318.702V275.711H321.406V273.007Z" fill="#F0F0F0"/>
<path d="M321.406 277.54H318.702V280.244H321.406V277.54Z" fill="#F0F0F0"/>
<path d="M321.406 282.073H318.702V284.777H321.406V282.073Z" fill="#F0F0F0"/>
<path d="M321.406 286.605H318.702V289.309H321.406V286.605Z" fill="#F0F0F0"/>
<path d="M321.406 313.802H318.702V316.506H321.406V313.802Z" fill="#F0F0F0"/>
<path d="M321.406 318.335H318.702V321.039H321.406V318.335Z" fill="#F0F0F0"/>
<path d="M317.112 218.614H314.408V221.318H317.112V218.614Z" fill="#F0F0F0"/>
<path d="M317.112 223.147H314.408V225.851H317.112V223.147Z" fill="#F0F0F0"/>
<path d="M317.112 227.679H314.408V230.383H317.112V227.679Z" fill="#F0F0F0"/>
<path d="M317.112 232.212H314.408V234.916H317.112V232.212Z" fill="#F0F0F0"/>
<path d="M317.112 236.745H314.408V239.449H317.112V236.745Z" fill="#F0F0F0"/>
<path d="M317.112 241.277H314.408V243.981H317.112V241.277Z" fill="#F0F0F0"/>
<path d="M317.112 245.81H314.408V248.514H317.112V245.81Z" fill="#F0F0F0"/>
<path d="M317.112 250.344H314.408V253.048H317.112V250.344Z" fill="#F0F0F0"/>
<path d="M317.112 254.876H314.408V257.58H317.112V254.876Z" fill="#F0F0F0"/>
<path d="M317.112 259.409H314.408V262.113H317.112V259.409Z" fill="#F0F0F0"/>
<path d="M317.112 263.942H314.408V266.646H317.112V263.942Z" fill="#F0F0F0"/>
<path d="M317.112 268.475H314.408V271.178H317.112V268.475Z" fill="#F0F0F0"/>
<path d="M317.112 273.007H314.408V275.711H317.112V273.007Z" fill="#F0F0F0"/>
<path d="M317.112 277.54H314.408V280.244H317.112V277.54Z" fill="#F0F0F0"/>
<path d="M317.112 282.073H314.408V284.777H317.112V282.073Z" fill="#F0F0F0"/>
<path d="M317.112 286.605H314.408V289.309H317.112V286.605Z" fill="#F0F0F0"/>
<path d="M317.112 295.672H314.408V298.376H317.112V295.672Z" fill="#F0F0F0"/>
<path d="M317.112 300.204H314.408V302.908H317.112V300.204Z" fill="#F0F0F0"/>
<path d="M317.112 304.737H314.408V307.441H317.112V304.737Z" fill="#F0F0F0"/>
<path d="M317.112 309.27H314.408V311.974H317.112V309.27Z" fill="#F0F0F0"/>
<path d="M317.112 318.335H314.408V321.039H317.112V318.335Z" fill="#F0F0F0"/>
<path d="M341.286 275.711H338.583V278.415H341.286V275.711Z" fill="#F0F0F0"/>
<path d="M341.286 280.244H338.583V282.948H341.286V280.244Z" fill="#F0F0F0"/>
<path d="M341.286 284.777H338.583V287.481H341.286V284.777Z" fill="#F0F0F0"/>
<path d="M341.286 289.309H338.583V292.013H341.286V289.309Z" fill="#F0F0F0"/>
<path d="M341.286 293.842H338.583V296.546H341.286V293.842Z" fill="#F0F0F0"/>
<path d="M341.286 298.375H338.583V301.079H341.286V298.375Z" fill="#F0F0F0"/>
<path d="M341.286 302.907H338.583V305.611H341.286V302.907Z" fill="#F0F0F0"/>
<path d="M341.286 311.974H338.583V314.678H341.286V311.974Z" fill="#F0F0F0"/>
<path d="M341.286 316.505H338.583V319.209H341.286V316.505Z" fill="#F0F0F0"/>
<path d="M341.286 321.039H338.583V323.743H341.286V321.039Z" fill="#F0F0F0"/>
<path d="M341.286 325.572H338.583V328.276H341.286V325.572Z" fill="#F0F0F0"/>
<path d="M341.286 330.105H338.583V332.808H341.286V330.105Z" fill="#F0F0F0"/>
<path d="M341.286 334.637H338.583V337.341H341.286V334.637Z" fill="#F0F0F0"/>
<path d="M341.286 339.17H338.583V341.874H341.286V339.17Z" fill="#F0F0F0"/>
<path d="M341.286 343.703H338.583V346.407H341.286V343.703Z" fill="#F0F0F0"/>
<path d="M336.992 275.711H334.288V278.415H336.992V275.711Z" fill="#F0F0F0"/>
<path d="M336.992 280.244H334.288V282.948H336.992V280.244Z" fill="#F0F0F0"/>
<path d="M336.992 284.777H334.288V287.481H336.992V284.777Z" fill="#F0F0F0"/>
<path d="M336.992 289.309H334.288V292.013H336.992V289.309Z" fill="#F0F0F0"/>
<path d="M336.992 293.842H334.288V296.546H336.992V293.842Z" fill="#F0F0F0"/>
<path d="M336.992 298.375H334.288V301.079H336.992V298.375Z" fill="#F0F0F0"/>
<path d="M336.992 311.974H334.288V314.678H336.992V311.974Z" fill="#F0F0F0"/>
<path d="M336.992 316.505H334.288V319.209H336.992V316.505Z" fill="#F0F0F0"/>
<path d="M336.992 321.039H334.288V323.743H336.992V321.039Z" fill="#F0F0F0"/>
<path d="M336.992 325.572H334.288V328.276H336.992V325.572Z" fill="#F0F0F0"/>
<path d="M336.992 330.105H334.288V332.808H336.992V330.105Z" fill="#F0F0F0"/>
<path d="M336.992 334.637H334.288V337.341H336.992V334.637Z" fill="#F0F0F0"/>
<path d="M336.992 339.17H334.288V341.874H336.992V339.17Z" fill="#F0F0F0"/>
<path d="M336.992 343.703H334.288V346.407H336.992V343.703Z" fill="#F0F0F0"/>
<path d="M332.698 275.711H329.994V278.415H332.698V275.711Z" fill="#F0F0F0"/>
<path d="M332.698 280.244H329.994V282.948H332.698V280.244Z" fill="#F0F0F0"/>
<path d="M332.698 284.777H329.994V287.481H332.698V284.777Z" fill="#F0F0F0"/>
<path d="M332.698 289.309H329.994V292.013H332.698V289.309Z" fill="#F0F0F0"/>
<path d="M332.698 293.842H329.994V296.546H332.698V293.842Z" fill="#F0F0F0"/>
<path d="M332.698 298.375H329.994V301.079H332.698V298.375Z" fill="#F0F0F0"/>
<path d="M332.698 307.44H329.994V310.144H332.698V307.44Z" fill="#F0F0F0"/>
<path d="M332.698 311.974H329.994V314.678H332.698V311.974Z" fill="#F0F0F0"/>
<path d="M332.698 316.505H329.994V319.209H332.698V316.505Z" fill="#F0F0F0"/>
<path d="M332.698 321.039H329.994V323.743H332.698V321.039Z" fill="#F0F0F0"/>
<path d="M332.698 325.572H329.994V328.276H332.698V325.572Z" fill="#F0F0F0"/>
<path d="M332.698 330.105H329.994V332.808H332.698V330.105Z" fill="#F0F0F0"/>
<path d="M332.698 334.637H329.994V337.341H332.698V334.637Z" fill="#F0F0F0"/>
<path d="M332.698 339.17H329.994V341.874H332.698V339.17Z" fill="#F0F0F0"/>
<path d="M332.698 343.703H329.994V346.407H332.698V343.703Z" fill="#F0F0F0"/>
<path d="M242.202 250.344H239.498V253.048H242.202V250.344Z" fill="#F0F0F0"/>
<path d="M242.202 254.876H239.498V257.58H242.202V254.876Z" fill="#F0F0F0"/>
<path d="M242.202 259.409H239.498V262.113H242.202V259.409Z" fill="#F0F0F0"/>
<path d="M242.202 263.942H239.498V266.646H242.202V263.942Z" fill="#F0F0F0"/>
<path d="M242.202 268.475H239.498V271.178H242.202V268.475Z" fill="#F0F0F0"/>
<path d="M242.202 273.007H239.498V275.711H242.202V273.007Z" fill="#F0F0F0"/>
<path d="M242.202 277.54H239.498V280.244H242.202V277.54Z" fill="#F0F0F0"/>
<path d="M242.202 282.073H239.498V284.777H242.202V282.073Z" fill="#F0F0F0"/>
<path d="M242.202 286.605H239.498V289.309H242.202V286.605Z" fill="#F0F0F0"/>
<path d="M242.202 291.138H239.498V293.842H242.202V291.138Z" fill="#F0F0F0"/>
<path d="M242.202 295.672H239.498V298.376H242.202V295.672Z" fill="#F0F0F0"/>
<path d="M242.202 300.204H239.498V302.908H242.202V300.204Z" fill="#F0F0F0"/>
<path d="M242.202 304.737H239.498V307.441H242.202V304.737Z" fill="#F0F0F0"/>
<path d="M242.202 313.802H239.498V316.506H242.202V313.802Z" fill="#F0F0F0"/>
<path d="M242.202 318.335H239.498V321.039H242.202V318.335Z" fill="#F0F0F0"/>
<path d="M242.202 322.868H239.498V325.572H242.202V322.868Z" fill="#F0F0F0"/>
<path d="M242.202 327.401H239.498V330.105H242.202V327.401Z" fill="#F0F0F0"/>
<path d="M242.202 336.466H239.498V339.17H242.202V336.466Z" fill="#F0F0F0"/>
<path d="M242.202 340.999H239.498V343.703H242.202V340.999Z" fill="#F0F0F0"/>
<path d="M242.202 345.531H239.498V348.235H242.202V345.531Z" fill="#F0F0F0"/>
<path d="M237.908 250.344H235.204V253.048H237.908V250.344Z" fill="#F0F0F0"/>
<path d="M237.908 254.876H235.204V257.58H237.908V254.876Z" fill="#F0F0F0"/>
<path d="M237.908 259.409H235.204V262.113H237.908V259.409Z" fill="#F0F0F0"/>
<path d="M237.908 263.942H235.204V266.646H237.908V263.942Z" fill="#F0F0F0"/>
<path d="M237.908 268.475H235.204V271.178H237.908V268.475Z" fill="#F0F0F0"/>
<path d="M237.908 273.007H235.204V275.711H237.908V273.007Z" fill="#F0F0F0"/>
<path d="M237.908 277.54H235.204V280.244H237.908V277.54Z" fill="#F0F0F0"/>
<path d="M237.908 282.073H235.204V284.777H237.908V282.073Z" fill="#F0F0F0"/>
<path d="M237.908 286.605H235.204V289.309H237.908V286.605Z" fill="#F0F0F0"/>
<path d="M237.908 291.138H235.204V293.842H237.908V291.138Z" fill="#F0F0F0"/>
<path d="M237.908 295.672H235.204V298.376H237.908V295.672Z" fill="#F0F0F0"/>
<path d="M237.908 300.204H235.204V302.908H237.908V300.204Z" fill="#F0F0F0"/>
<path d="M237.908 304.737H235.204V307.441H237.908V304.737Z" fill="#F0F0F0"/>
<path d="M237.908 318.335H235.204V321.039H237.908V318.335Z" fill="#F0F0F0"/>
<path d="M237.908 322.868H235.204V325.572H237.908V322.868Z" fill="#F0F0F0"/>
<path d="M237.908 331.933H235.204V334.637H237.908V331.933Z" fill="#F0F0F0"/>
<path d="M237.908 336.466H235.204V339.17H237.908V336.466Z" fill="#F0F0F0"/>
<path d="M237.908 340.999H235.204V343.703H237.908V340.999Z" fill="#F0F0F0"/>
<path d="M237.908 345.531H235.204V348.235H237.908V345.531Z" fill="#F0F0F0"/>
<path d="M233.613 250.344H230.909V253.048H233.613V250.344Z" fill="#F0F0F0"/>
<path d="M233.613 254.876H230.909V257.58H233.613V254.876Z" fill="#F0F0F0"/>
<path d="M233.613 259.409H230.909V262.113H233.613V259.409Z" fill="#F0F0F0"/>
<path d="M233.613 263.942H230.909V266.646H233.613V263.942Z" fill="#F0F0F0"/>
<path d="M233.613 268.475H230.909V271.178H233.613V268.475Z" fill="#F0F0F0"/>
<path d="M233.613 273.007H230.909V275.711H233.613V273.007Z" fill="#F0F0F0"/>
<path d="M233.613 277.54H230.909V280.244H233.613V277.54Z" fill="#F0F0F0"/>
<path d="M233.613 282.073H230.909V284.777H233.613V282.073Z" fill="#F0F0F0"/>
<path d="M233.613 286.605H230.909V289.309H233.613V286.605Z" fill="#F0F0F0"/>
<path d="M233.613 291.138H230.909V293.842H233.613V291.138Z" fill="#F0F0F0"/>
<path d="M233.613 295.672H230.909V298.376H233.613V295.672Z" fill="#F0F0F0"/>
<path d="M233.613 300.204H230.909V302.908H233.613V300.204Z" fill="#F0F0F0"/>
<path d="M233.613 304.737H230.909V307.441H233.613V304.737Z" fill="#F0F0F0"/>
<path d="M233.613 309.27H230.909V311.974H233.613V309.27Z" fill="#F0F0F0"/>
<path d="M233.613 318.335H230.909V321.039H233.613V318.335Z" fill="#F0F0F0"/>
<path d="M233.613 327.401H230.909V330.105H233.613V327.401Z" fill="#F0F0F0"/>
<path d="M233.613 331.933H230.909V334.637H233.613V331.933Z" fill="#F0F0F0"/>
<path d="M233.613 336.466H230.909V339.17H233.613V336.466Z" fill="#F0F0F0"/>
<path d="M233.613 340.999H230.909V343.703H233.613V340.999Z" fill="#F0F0F0"/>
<path d="M233.613 345.531H230.909V348.235H233.613V345.531Z" fill="#F0F0F0"/>
<path d="M259.697 276.188H256.993V278.892H259.697V276.188Z" fill="#F0F0F0"/>
<path d="M259.697 280.721H256.993V283.425H259.697V280.721Z" fill="#F0F0F0"/>
<path d="M259.697 285.254H256.993V287.958H259.697V285.254Z" fill="#F0F0F0"/>
<path d="M259.697 289.787H256.993V292.49H259.697V289.787Z" fill="#F0F0F0"/>
<path d="M259.697 294.319H256.993V297.023H259.697V294.319Z" fill="#F0F0F0"/>
<path d="M259.697 298.852H256.993V301.556H259.697V298.852Z" fill="#F0F0F0"/>
<path d="M259.697 312.451H256.993V315.155H259.697V312.451Z" fill="#F0F0F0"/>
<path d="M259.697 316.984H256.993V319.688H259.697V316.984Z" fill="#F0F0F0"/>
<path d="M259.697 321.516H256.993V324.22H259.697V321.516Z" fill="#F0F0F0"/>
<path d="M259.697 326.049H256.993V328.753H259.697V326.049Z" fill="#F0F0F0"/>
<path d="M259.697 330.582H256.993V333.286H259.697V330.582Z" fill="#F0F0F0"/>
<path d="M259.697 335.115H256.993V337.818H259.697V335.115Z" fill="#F0F0F0"/>
<path d="M259.697 339.647H256.993V342.351H259.697V339.647Z" fill="#F0F0F0"/>
<path d="M255.402 276.188H252.698V278.892H255.402V276.188Z" fill="#F0F0F0"/>
<path d="M255.402 280.721H252.698V283.425H255.402V280.721Z" fill="#F0F0F0"/>
<path d="M255.402 285.254H252.698V287.958H255.402V285.254Z" fill="#F0F0F0"/>
<path d="M255.402 289.787H252.698V292.49H255.402V289.787Z" fill="#F0F0F0"/>
<path d="M255.402 294.319H252.698V297.023H255.402V294.319Z" fill="#F0F0F0"/>
<path d="M255.402 298.852H252.698V301.556H255.402V298.852Z" fill="#F0F0F0"/>
<path d="M255.402 312.451H252.698V315.155H255.402V312.451Z" fill="#F0F0F0"/>
<path d="M255.402 316.984H252.698V319.688H255.402V316.984Z" fill="#F0F0F0"/>
<path d="M255.402 321.516H252.698V324.22H255.402V321.516Z" fill="#F0F0F0"/>
<path d="M255.402 326.049H252.698V328.753H255.402V326.049Z" fill="#F0F0F0"/>
<path d="M255.402 330.582H252.698V333.286H255.402V330.582Z" fill="#F0F0F0"/>
<path d="M255.402 335.115H252.698V337.818H255.402V335.115Z" fill="#F0F0F0"/>
<path d="M255.402 344.18H252.698V346.884H255.402V344.18Z" fill="#F0F0F0"/>
<path d="M112.739 256.228H110.036V258.932H112.739V256.228Z" fill="#F0F0F0"/>
<path d="M112.739 260.761H110.036V263.465H112.739V260.761Z" fill="#F0F0F0"/>
<path d="M112.739 265.293H110.036V267.997H112.739V265.293Z" fill="#F0F0F0"/>
<path d="M112.739 269.826H110.036V272.53H112.739V269.826Z" fill="#F0F0F0"/>
<path d="M112.739 274.359H110.036V277.063H112.739V274.359Z" fill="#F0F0F0"/>
<path d="M112.739 278.891H110.036V281.595H112.739V278.891Z" fill="#F0F0F0"/>
<path d="M112.739 283.425H110.036V286.129H112.739V283.425Z" fill="#F0F0F0"/>
<path d="M112.739 287.958H110.036V290.662H112.739V287.958Z" fill="#F0F0F0"/>
<path d="M112.739 292.49H110.036V295.194H112.739V292.49Z" fill="#F0F0F0"/>
<path d="M112.739 297.023H110.036V299.727H112.739V297.023Z" fill="#F0F0F0"/>
<path d="M112.739 301.556H110.036V304.26H112.739V301.556Z" fill="#F0F0F0"/>
<path d="M112.739 310.621H110.036V313.325H112.739V310.621Z" fill="#F0F0F0"/>
<path d="M112.739 315.154H110.036V317.858H112.739V315.154Z" fill="#F0F0F0"/>
<path d="M112.739 319.687H110.036V322.391H112.739V319.687Z" fill="#F0F0F0"/>
<path d="M112.739 324.219H110.036V326.923H112.739V324.219Z" fill="#F0F0F0"/>
<path d="M112.739 328.753H110.036V331.457H112.739V328.753Z" fill="#F0F0F0"/>
<path d="M112.739 333.285H110.036V335.989H112.739V333.285Z" fill="#F0F0F0"/>
<path d="M112.739 337.818H110.036V340.522H112.739V337.818Z" fill="#F0F0F0"/>
<path d="M112.739 342.351H110.036V345.055H112.739V342.351Z" fill="#F0F0F0"/>
<path d="M108.445 256.228H105.741V258.932H108.445V256.228Z" fill="#F0F0F0"/>
<path d="M108.445 260.761H105.741V263.465H108.445V260.761Z" fill="#F0F0F0"/>
<path d="M108.445 265.293H105.741V267.997H108.445V265.293Z" fill="#F0F0F0"/>
<path d="M108.445 269.826H105.741V272.53H108.445V269.826Z" fill="#F0F0F0"/>
<path d="M108.445 274.359H105.741V277.063H108.445V274.359Z" fill="#F0F0F0"/>
<path d="M108.445 278.891H105.741V281.595H108.445V278.891Z" fill="#F0F0F0"/>
<path d="M108.445 283.425H105.741V286.129H108.445V283.425Z" fill="#F0F0F0"/>
<path d="M108.445 287.958H105.741V290.662H108.445V287.958Z" fill="#F0F0F0"/>
<path d="M108.445 292.49H105.741V295.194H108.445V292.49Z" fill="#F0F0F0"/>
<path d="M108.445 297.023H105.741V299.727H108.445V297.023Z" fill="#F0F0F0"/>
<path d="M108.445 301.556H105.741V304.26H108.445V301.556Z" fill="#F0F0F0"/>
<path d="M108.445 306.089H105.741V308.793H108.445V306.089Z" fill="#F0F0F0"/>
<path d="M108.445 310.621H105.741V313.325H108.445V310.621Z" fill="#F0F0F0"/>
<path d="M108.445 315.154H105.741V317.858H108.445V315.154Z" fill="#F0F0F0"/>
<path d="M108.445 319.687H105.741V322.391H108.445V319.687Z" fill="#F0F0F0"/>
<path d="M108.445 324.219H105.741V326.923H108.445V324.219Z" fill="#F0F0F0"/>
<path d="M108.445 328.753H105.741V331.457H108.445V328.753Z" fill="#F0F0F0"/>
<path d="M108.445 333.285H105.741V335.989H108.445V333.285Z" fill="#F0F0F0"/>
<path d="M108.445 337.818H105.741V340.522H108.445V337.818Z" fill="#F0F0F0"/>
<path d="M108.445 342.351H105.741V345.055H108.445V342.351Z" fill="#F0F0F0"/>
<path d="M133.892 273.882H131.188V276.586H133.892V273.882Z" fill="#F0F0F0"/>
<path d="M133.892 278.415H131.188V281.119H133.892V278.415Z" fill="#F0F0F0"/>
<path d="M133.892 282.948H131.188V285.652H133.892V282.948Z" fill="#F0F0F0"/>
<path d="M133.892 287.481H131.188V290.184H133.892V287.481Z" fill="#F0F0F0"/>
<path d="M133.892 292.013H131.188V294.717H133.892V292.013Z" fill="#F0F0F0"/>
<path d="M133.892 296.546H131.188V299.25H133.892V296.546Z" fill="#F0F0F0"/>
<path d="M133.892 301.079H131.188V303.783H133.892V301.079Z" fill="#F0F0F0"/>
<path d="M133.892 305.611H131.188V308.315H133.892V305.611Z" fill="#F0F0F0"/>
<path d="M133.892 310.144H131.188V312.848H133.892V310.144Z" fill="#F0F0F0"/>
<path d="M133.892 314.677H131.188V317.381H133.892V314.677Z" fill="#F0F0F0"/>
<path d="M129.598 273.882H126.894V276.586H129.598V273.882Z" fill="#F0F0F0"/>
<path d="M129.598 278.415H126.894V281.119H129.598V278.415Z" fill="#F0F0F0"/>
<path d="M129.598 282.948H126.894V285.652H129.598V282.948Z" fill="#F0F0F0"/>
<path d="M129.598 287.481H126.894V290.184H129.598V287.481Z" fill="#F0F0F0"/>
<path d="M129.598 292.013H126.894V294.717H129.598V292.013Z" fill="#F0F0F0"/>
<path d="M129.598 296.546H126.894V299.25H129.598V296.546Z" fill="#F0F0F0"/>
<path d="M129.598 301.079H126.894V303.783H129.598V301.079Z" fill="#F0F0F0"/>
<path d="M129.598 305.611H126.894V308.315H129.598V305.611Z" fill="#F0F0F0"/>
<path d="M129.598 310.144H126.894V312.848H129.598V310.144Z" fill="#F0F0F0"/>
<path d="M174.651 141.756C174.651 137.507 171.206 134.063 166.958 134.063C166.19 134.063 165.45 134.178 164.749 134.389C164.861 133.617 164.922 132.829 164.922 132.027C164.922 123.029 157.628 115.736 148.631 115.736C147.606 115.736 146.603 115.835 145.63 116.016C143.126 111.918 138.625 109.173 133.471 109.173C125.671 109.173 119.344 115.441 119.228 123.213C119.149 123.211 119.071 123.201 118.991 123.201C111.743 123.201 105.868 129.076 105.868 136.324C105.868 143.572 111.744 149.447 118.991 149.447H167.184L167.175 149.435C171.322 149.321 174.651 145.931 174.651 141.756Z" fill="#F0F0F0"/>
<path d="M388.827 122.169C388.827 119.457 386.628 117.257 383.915 117.257C383.425 117.257 382.951 117.331 382.505 117.465C382.577 116.973 382.615 116.47 382.615 115.958C382.615 110.214 377.958 105.557 372.214 105.557C371.559 105.557 370.92 105.62 370.298 105.736C368.699 103.12 365.825 101.368 362.535 101.368C357.555 101.368 353.514 105.37 353.441 110.332C353.39 110.332 353.341 110.325 353.289 110.325C348.662 110.325 344.91 114.076 344.91 118.704C344.91 123.331 348.661 127.083 353.289 127.083H384.06L384.053 127.076C386.701 127.001 388.827 124.836 388.827 122.169Z" fill="#F0F0F0"/>
<path d="M255.653 111.773C255.653 110.111 254.306 108.764 252.644 108.764C252.343 108.764 252.054 108.809 251.78 108.891C251.824 108.59 251.848 108.281 251.848 107.968C251.848 104.448 248.995 101.596 245.476 101.596C245.075 101.596 244.683 101.635 244.302 101.706C243.323 100.103 241.562 99.0302 239.547 99.0302C236.496 99.0302 234.021 101.482 233.975 104.521C233.945 104.521 233.914 104.516 233.883 104.516C231.048 104.516 228.751 106.815 228.751 109.649C228.751 112.483 231.048 114.781 233.883 114.781H252.732L252.728 114.777C254.351 114.733 255.653 113.406 255.653 111.773Z" fill="#F0F0F0"/>
<path d="M233.5 399.342C333.515 399.342 414.592 394.607 414.592 388.766C414.592 382.926 333.515 378.191 233.5 378.191C133.485 378.191 52.4077 382.926 52.4077 388.766C52.4077 394.607 133.485 399.342 233.5 399.342Z" fill="#F5F5F5"/>
<path d="M381.048 194.52L358.644 195.9L364.449 199.164L241.368 262.333L208.388 250.228L108.563 300.094L101.773 303.485L109.637 307.912L117.866 303.802L208.847 258.354L241.863 270.477L372.262 203.558L376.917 206.175L381.048 194.52Z" fill="#FFAC0A"/>
<path d="M377.325 255.441L354.92 256.821L360.16 259.767L210.353 334.3L203.525 337.7L211.408 342.127L219.599 338.055L368.031 264.192L373.194 267.095L377.325 255.441Z" fill="#FFAC0A"/>
<path d="M285.285 167.625L262.881 169.005L268.121 171.951L118.314 246.485L111.486 249.885L119.369 254.312L127.56 250.24L275.991 176.377L281.154 179.28L285.285 167.625Z" fill="#FFAC0A"/>
<path opacity="0.3" d="M381.048 194.52L358.644 195.9L364.449 199.164L241.368 262.333L208.388 250.228L108.563 300.094L101.773 303.485L109.637 307.912L117.866 303.802L208.847 258.354L241.863 270.477L372.262 203.558L376.917 206.175L381.048 194.52Z" fill="white"/>
<path opacity="0.7" d="M377.325 255.441L354.92 256.821L360.16 259.767L210.353 334.3L203.525 337.7L211.408 342.127L219.599 338.055L368.031 264.192L373.194 267.095L377.325 255.441Z" fill="white"/>
<path opacity="0.5" d="M285.285 167.625L262.881 169.005L268.121 171.951L118.314 246.485L111.486 249.885L119.369 254.312L127.56 250.24L275.991 176.377L281.154 179.28L285.285 167.625Z" fill="white"/>
<path d="M89.6425 389.398H362.552L353.588 379.583L334.741 374.962L327.351 362.687L314.049 346.419H297.792L280.582 367.543L256.425 370.578L220.834 379.583L198.886 384.192L190.431 380.638L137.677 385.017L120.927 382.194L89.6425 389.398Z" fill="#263238"/>
<path opacity="0.7" d="M89.6425 389.398H362.552L353.588 379.583L334.741 374.962L327.351 362.687L314.049 346.419H297.792L280.582 367.543L256.425 370.578L220.834 379.583L198.886 384.192L190.431 380.638L137.677 385.017L120.927 382.194L89.6425 389.398Z" fill="white"/>
<path opacity="0.2" d="M120.927 382.194L116.318 386.871L135.04 388.766L139.966 386.871H178.641L188.982 381.178L199.639 385.204L197.77 387.857L248.43 385.204L244.903 377.276L256.425 370.578L269.734 374.923L273.231 380.525L280.128 383.668L280.582 367.543L297.792 346.419L301.24 355.833L312.643 352.818L301.24 365.206L293.677 368.175L291.459 382.387L310.673 375.845L328.163 379.727L334.741 374.962L331.365 382.387L314.861 385.204L309.359 389.398H89.6425L120.927 382.194Z" fill="black"/>
<path d="M269.486 145.383H259.039L254.917 160.912L269.486 145.383Z" fill="#FFAC0A"/>
<path opacity="0.8" d="M269.486 145.383H259.039L254.917 160.912L269.486 145.383Z" fill="white"/>
<path d="M233.024 139.833V101.546C233.024 96.0031 237.518 91.5087 243.061 91.5087H281.348C286.891 91.5087 291.386 96.0031 291.386 101.546V139.833C291.386 145.376 286.891 149.871 281.348 149.871H243.061C237.517 149.871 233.024 145.376 233.024 139.833Z" fill="#FFAC0A"/>
<path opacity="0.8" d="M233.024 139.833V101.546C233.024 96.0031 237.518 91.5087 243.061 91.5087H281.348C286.891 91.5087 291.386 96.0031 291.386 101.546V139.833C291.386 145.376 286.891 149.871 281.348 149.871H243.061C237.517 149.871 233.024 145.376 233.024 139.833Z" fill="white"/>
<path d="M257.308 135.032H243.331V140.366H257.308V135.032Z" fill="#263238"/>
<path opacity="0.4" d="M257.308 135.032H243.331V140.366H257.308V135.032Z" fill="white"/>
<path opacity="0.2" d="M256.415 133.923L253.798 140.366H259.616L256.415 133.923Z" fill="black"/>
<path d="M281.077 132.261H267.746V140.366H281.077V132.261Z" fill="#263238"/>
<path opacity="0.4" d="M281.077 132.261H267.746V140.366H281.077V132.261Z" fill="white"/>
<path opacity="0.2" d="M268.474 132.261L272.365 140.366H265.066L266.452 132.261H268.474Z" fill="black"/>
<path d="M262.204 102.533L253.335 106.329L262.204 110.004V102.533Z" fill="#FFAC0A"/>
<path d="M262.549 101.598H261.858V130.32H262.549V101.598Z" fill="#263238"/>
<path opacity="0.2" d="M262.549 101.598H261.858V130.32H262.549V101.598Z" fill="white"/>
<path d="M262.82 101.629C262.82 101.969 262.545 102.245 262.205 102.245C261.865 102.245 261.589 101.969 261.589 101.629C261.589 101.29 261.865 101.014 262.205 101.014C262.545 101.013 262.82 101.289 262.82 101.629Z" fill="#263238"/>
<path d="M268.474 127.826H255.935V140.365H268.474V127.826Z" fill="#263238"/>
<path opacity="0.4" d="M268.474 127.826H255.935V140.365H268.474V127.826Z" fill="white"/>
<path d="M254.213 196.862C254.213 196.862 271.532 195.831 275.311 194.772C279.091 193.712 296.044 185.503 296.044 185.503L298.456 190.407C298.456 190.407 279.982 202.258 275.549 203.774C271.115 205.29 251.777 209.087 251.777 209.087L254.213 196.862Z" fill="#263238"/>
<path opacity="0.4" d="M298.459 190.405C298.459 190.405 279.985 202.258 275.548 203.771C272.728 204.742 263.883 206.629 257.812 207.871C254.337 208.581 251.778 209.085 251.778 209.085L253.431 200.819L254.216 196.859C254.216 196.859 271.532 195.832 275.315 194.767C279.088 193.712 296.04 185.502 296.04 185.502L298.459 190.405Z" fill="white"/>
<path opacity="0.2" d="M257.812 207.871C254.338 208.581 251.778 209.085 251.778 209.085L253.848 203.563C253.848 203.563 256.775 204.77 257.812 207.871Z" fill="black"/>
<path d="M247.816 184.345C245.934 187.382 241.539 189.192 239.526 191.039C237.513 192.887 238.441 199.267 225.291 197.37C212.141 195.473 207.214 198.119 207.214 198.119C207.214 198.119 206.476 195.258 212.265 192.903C212.265 192.903 207.793 193.767 206.519 196.098C206.519 196.098 206.23 188.909 212.142 186.71C218.054 184.512 217.192 175.398 221.379 170.594C225.567 165.791 236.394 163.225 242.681 167.71C248.967 172.195 250.259 180.404 247.816 184.345Z" fill="#263238"/>
<path d="M206.518 254.995C206.518 254.995 239.007 255.204 245.794 251.851C252.582 248.498 251.745 215.429 251.745 215.429L222.875 224.635C222.875 224.635 222.037 241.047 206.518 254.995Z" fill="#263238"/>
<path opacity="0.1" d="M206.518 254.995C206.518 254.995 239.007 255.204 245.794 251.851C252.582 248.498 251.745 215.429 251.745 215.429L222.875 224.635C222.875 224.635 222.037 241.047 206.518 254.995Z" fill="white"/>
<path d="M228.101 199.251C231.327 198.635 236.898 197.416 239.936 197.37C242.974 197.324 245.21 199.097 245.794 200.526C246.378 201.955 229.603 207.61 227.021 206.223C224.438 204.836 224.082 200.019 228.101 199.251Z" fill="#263238"/>
<path opacity="0.1" d="M228.101 199.251C231.327 198.635 236.898 197.416 239.936 197.37C242.974 197.324 245.21 199.097 245.794 200.526C246.378 201.955 229.603 207.61 227.021 206.223C224.438 204.836 224.082 200.019 228.101 199.251Z" fill="white"/>
<path d="M182.286 384.858L183.623 384.857L183.995 383.205L188.422 385.204H199.64C199.64 385.204 201.424 383.411 196.081 381.982C195.838 381.916 195.586 381.823 195.325 381.692C192.476 380.357 188.422 375.845 188.422 375.845H182.267C182.267 375.845 182.052 376.154 181.763 376.733C181.089 378.087 179.929 380.929 182.286 384.858Z" fill="#263238"/>
<path d="M181.762 376.733C181.762 376.742 181.762 376.751 181.762 376.751C182.575 375.845 186.273 379.824 188.982 381.178C191.401 382.383 194.119 382.916 195.324 381.692C192.475 380.357 187.995 374.525 187.995 374.525H183.046C183.046 374.525 182.052 376.154 181.762 376.733Z" fill="#FFC2BC"/>
<path d="M187.472 377.276L197.77 355.255L188.868 352.818L182.671 374.548" fill="#FFC2BC"/>
<path d="M191.193 372.767C191.193 372.767 188.628 372.532 186.609 371.882C184.226 371.117 183.184 370.192 183.184 370.192C186.651 351.825 194.562 323.258 206.265 309.152C220.869 253.222 238.505 244.389 238.505 244.389L253.774 248.389C253.774 248.389 253.774 256.627 248.43 266.974C242.143 279.145 229.921 297.525 221.218 312.828C211.152 330.529 199.914 351.414 191.193 372.767Z" fill="#263238"/>
<path opacity="0.2" d="M235.064 289.815C230.329 297.511 225.37 305.515 221.213 312.828C211.154 330.528 199.918 351.412 191.194 372.763C191.194 372.763 188.626 372.53 186.609 371.885C184.227 371.119 183.181 370.195 183.181 370.195C186.655 351.823 194.557 323.261 206.26 309.148C210.715 292.112 215.441 279.438 219.878 270.061C223.156 275.647 228.003 282.213 235.064 289.815Z" fill="white"/>
<path d="M252.38 374.578L253.717 374.576L254.089 372.925L258.516 374.923H269.734C269.734 374.923 271.518 373.13 266.175 371.701C265.932 371.636 265.68 371.542 265.419 371.412C262.57 370.076 258.516 365.565 258.516 365.565H252.361C252.361 365.565 252.146 365.873 251.857 366.452C251.184 367.806 250.022 370.649 252.38 374.578Z" fill="#263238"/>
<path d="M251.857 366.452C251.857 366.461 251.857 366.471 251.857 366.471C252.669 365.565 256.368 369.544 259.077 370.898C261.496 372.103 264.214 372.635 265.419 371.412C262.57 370.076 258.09 364.244 258.09 364.244H253.141C253.141 364.244 252.146 365.873 251.857 366.452Z" fill="#FFC2BC"/>
<path d="M257.904 367.034L264.424 343.614L255.241 342.681L252.718 365.136" fill="#FFC2BC"/>
<path d="M275.027 289.805C257.537 269.747 225.915 241.899 225.915 241.899C215.839 251.131 216.46 267.248 227.283 275.593C235.983 282.301 247.814 290.332 263.127 298.527C255.506 320.916 252.947 345.123 252.675 360.702C252.675 360.702 254.062 361.5 256.557 361.93C259.539 362.443 261.465 361.908 261.465 361.908C265.88 343.651 272.833 320.049 277.232 302.644C278.754 296.895 278.486 293.161 275.027 289.805Z" fill="#263238"/>
<path opacity="0.2" d="M275.027 289.805C257.537 269.747 225.915 241.899 225.915 241.899C215.839 251.131 216.46 267.248 227.283 275.593C235.983 282.301 247.814 290.332 263.127 298.527C255.506 320.916 252.947 345.123 252.675 360.702C252.675 360.702 254.062 361.5 256.557 361.93C259.539 362.443 261.465 361.908 261.465 361.908C265.88 343.651 272.833 320.049 277.232 302.644C278.754 296.895 278.486 293.161 275.027 289.805Z" fill="white"/>
<path d="M296.679 185.555L301.38 179.895L305.066 185.929C305.066 185.929 299.807 190.532 298.069 189.205L296.679 185.555Z" fill="#EEC1BB"/>
<path d="M307.961 179.692L309.433 184.553L305.066 185.929L301.38 179.895L307.961 179.692Z" fill="#EEC1BB"/>
<path d="M294.084 185.608L296.781 191.873L299.274 190.454L296.806 184.569L294.084 185.608Z" fill="#FFAC0A"/>
<path opacity="0.4" d="M294.084 185.608L296.781 191.873L299.274 190.454L296.806 184.569L294.084 185.608Z" fill="white"/>
<path d="M228.033 201.129C228.033 201.129 240.528 206.325 239.111 198.848C239.111 198.848 247.344 198.08 253.844 197.37C253.844 197.37 255.612 214.174 253.232 240.914L254.931 253.846L245.154 256.8L241.932 247.42L238.033 257.29L217.578 250.901L223.743 238.476C223.743 238.476 222.751 219.114 217.578 208.644C217.578 208.644 218.479 204.911 228.033 201.129Z" fill="#FFAC0A"/>
<path d="M229.065 186.903C230.207 191.122 231.608 198.85 228.866 201.665C228.866 201.665 225.032 205.362 236.167 205.025C237.135 207.343 240.884 211.6 240.884 211.6C240.884 211.6 241.614 205.058 240.841 203.368C243.961 200.372 237.606 198.119 237.606 198.119C237.606 198.119 237.05 197.053 237.625 193.774L229.065 186.903Z" fill="#EEC1BB"/>
<path opacity="0.2" d="M232.556 189.707L237.622 193.77C237.483 194.546 237.388 195.333 237.391 196.098C235.574 195.838 232.959 193.866 232.628 191.984C232.462 191.045 232.435 190.144 232.556 189.707Z" fill="black"/>
<path d="M225.463 178.436C226.742 185.248 227.14 188.15 231.027 191.417C236.874 196.331 244.906 193.731 245.674 186.787C246.365 180.537 244.156 170.448 237.137 168.198C230.222 165.983 224.183 171.624 225.463 178.436Z" fill="#EEC1BB"/>
<path d="M231.32 173.515C227.561 178.365 235.281 183.943 227.561 183.62C219.84 183.297 222.978 172.395 227.561 169.917C232.145 167.44 231.32 173.515 231.32 173.515Z" fill="#263238"/>
<path d="M236.252 179.571C236.336 180.147 236.701 180.593 237.071 180.565C237.44 180.538 237.672 180.048 237.589 179.472C237.506 178.896 237.14 178.45 236.771 178.478C236.402 178.505 236.17 178.995 236.252 179.571Z" fill="#263238"/>
<path d="M243.21 179.161C243.293 179.737 243.659 180.183 244.028 180.155C244.397 180.127 244.629 179.638 244.546 179.062C244.463 178.486 244.097 178.04 243.728 178.068C243.359 178.095 243.128 178.585 243.21 179.161Z" fill="#263238"/>
<path d="M243.57 178.112L244.87 177.613C244.87 177.613 244.328 178.745 243.57 178.112Z" fill="#263238"/>
<path d="M241.41 180.249C241.41 180.249 242.724 182.66 243.95 183.778C243.307 184.543 241.994 184.313 241.994 184.313L241.41 180.249Z" fill="#D4827D"/>
<path d="M239.053 186.681C239.352 186.713 239.672 186.72 240.011 186.694C240.102 186.688 240.166 186.607 240.152 186.512C240.139 186.42 240.056 186.35 239.961 186.355C237.486 186.539 236.073 184.857 236.059 184.84C235.998 184.765 235.892 184.75 235.823 184.807C235.754 184.864 235.746 184.97 235.808 185.044C235.863 185.111 237 186.467 239.053 186.681Z" fill="#263238"/>
<path d="M234.311 176.473C234.399 176.475 234.485 176.44 234.548 176.371C235.514 175.29 236.738 175.522 236.752 175.525C236.933 175.559 237.103 175.443 237.127 175.259C237.15 175.075 237.019 174.896 236.835 174.859C236.771 174.847 235.234 174.554 234.036 175.896C233.917 176.029 233.934 176.244 234.075 176.376C234.143 176.439 234.228 176.472 234.311 176.473Z" fill="#263238"/>
<path d="M244.774 175.851C244.858 175.857 244.941 175.833 245.007 175.775C245.141 175.656 245.147 175.443 245.018 175.3C243.733 173.856 242.201 174.008 242.136 174.015C241.953 174.036 241.832 174.202 241.866 174.388C241.899 174.573 242.075 174.707 242.257 174.687C242.317 174.68 243.508 174.58 244.53 175.728C244.597 175.802 244.686 175.844 244.774 175.851Z" fill="#263238"/>
<path d="M236.613 178.522L237.912 178.023C237.912 178.023 237.371 179.155 236.613 178.522Z" fill="#263238"/>
<path d="M233.957 169.74C233.957 169.74 232.619 177.768 227.286 179.111C221.952 180.454 226.282 170.857 226.282 170.857C226.282 170.857 227.402 166.506 234.607 166.506C241.812 166.506 250.125 173.825 247.816 184.345C247.816 184.345 248.212 180.834 246.615 178.067C245.018 175.3 243.375 177.683 233.957 169.74Z" fill="#263238"/>
<path d="M224.802 185.004C225.499 186.4 226.644 187.261 227.698 187.541C229.283 187.961 229.971 186.144 229.443 184.329C228.967 182.695 227.57 180.508 226.021 180.903C224.496 181.292 224.004 183.407 224.802 185.004Z" fill="#EEC1BB"/>
<path d="M226.566 200.928C226.566 200.928 228.77 226.421 219.718 243.048C210.666 259.675 206.403 262.17 206.403 262.17L202.708 254.996C202.708 254.996 219.466 236.174 219.984 233.72C220.502 231.265 216.923 207.875 216.923 207.875C216.923 207.875 221.635 203.332 226.566 200.928Z" fill="#263238"/>
<path opacity="0.4" d="M219.714 243.045C210.664 259.68 206.405 262.174 206.405 262.174L202.706 254.991C202.706 254.991 219.462 236.171 219.985 233.715C220.134 232.986 219.929 230.399 219.555 227.121C219.172 223.702 218.612 219.537 218.108 215.959C217.473 211.448 216.921 207.871 216.921 207.871C216.921 207.871 221.638 203.332 226.57 200.931C226.57 200.931 228.774 226.42 219.714 243.045Z" fill="white"/>
<path d="M228.101 199.251C228.101 199.251 225.382 199.583 224.77 200.924C224.158 202.266 218.478 209.332 218.478 209.332L224.423 207.873L220.928 210.966C220.928 210.966 224.021 220.595 224.691 229.065C224.691 229.065 229.987 214.815 226.566 200.927L228.101 199.251Z" fill="#263238"/>
<path opacity="0.25" d="M228.101 199.251C228.101 199.251 225.382 199.583 224.77 200.924C224.158 202.266 218.478 209.332 218.478 209.332L224.423 207.873L220.928 210.966C220.928 210.966 224.021 220.595 224.691 229.065C224.691 229.065 229.987 214.815 226.566 200.927L228.101 199.251Z" fill="white"/>
<path d="M243.124 197.917C243.124 197.917 252.487 201.335 253.773 233.996C253.773 233.996 255.876 209.055 254.213 196.862L243.124 197.917Z" fill="#263238"/>
<path opacity="0.4" d="M243.124 197.917C243.124 197.917 252.487 201.335 253.773 233.996C253.773 233.996 255.876 209.055 254.213 196.862L243.124 197.917Z" fill="white"/>
<path d="M239.526 197.37C239.526 197.37 241.497 197.078 242.851 196.862C244.206 196.646 254.702 202.557 254.702 202.557L249.625 203.563L253.32 204.911C253.32 204.911 254.618 217.03 252.983 224.635C252.983 224.635 249.964 206.561 243.713 199.251C241.924 197.157 239.526 197.37 239.526 197.37Z" fill="#263238"/>
<path opacity="0.25" d="M239.526 197.37C239.526 197.37 241.497 197.078 242.851 196.862C244.206 196.646 254.702 202.557 254.702 202.557L249.625 203.563L253.32 204.911C253.32 204.911 254.618 217.03 252.983 224.635C252.983 224.635 249.964 206.561 243.713 199.251C241.924 197.157 239.526 197.37 239.526 197.37Z" fill="white"/>
<path d="M237.606 198.118C237.606 198.118 241.28 200.679 240.841 203.367L248.21 203.563C248.21 203.563 243.402 198.565 237.606 198.118Z" fill="#FFAC0A"/>
<path d="M227.396 207.874L236.167 205.025C236.167 205.025 231.525 201.28 230.077 199.253L227.181 201.429C227.181 201.429 227.181 201.429 227.172 201.439C227.107 201.597 226.247 203.727 227.396 207.874Z" fill="#FFAC0A"/>
<path opacity="0.4" d="M237.606 198.118C237.606 198.118 241.28 200.679 240.841 203.367L248.21 203.563C248.21 203.563 243.402 198.565 237.606 198.118Z" fill="white"/>
<path opacity="0.4" d="M227.396 207.874L236.167 205.025C236.167 205.025 231.525 201.28 230.077 199.253L227.181 201.429C227.181 201.429 227.181 201.429 227.172 201.439C227.107 201.597 226.247 203.727 227.396 207.874Z" fill="white"/>
<path d="M184.678 227.458L178.023 224.318L177.236 231.344C177.236 231.344 183.949 233.292 184.962 231.354L184.678 227.458Z" fill="#EEC1BB"/>
<path d="M171.975 226.918L172.697 231.944L177.236 231.343L178.023 224.318L171.975 226.918Z" fill="#EEC1BB"/>
<path d="M182.886 162.113C182.886 162.113 166.125 155.15 150.82 166.139C141.93 172.523 136.277 187.219 116.387 181.5C116.387 181.5 134.509 201.667 146.38 199.151C158.251 196.635 155.871 189.935 179.904 196.501L182.886 162.113Z" fill="#FFAC0A"/>
<path d="M183.975 160.583L181.743 160.441L167.256 387.405L169.489 387.547L183.975 160.583Z" fill="#263238"/>
<path d="M184.376 160.474C184.16 161.296 183.317 161.787 182.495 161.571C181.673 161.354 181.182 160.512 181.399 159.69C181.615 158.868 182.458 158.377 183.28 158.593C184.102 158.81 184.593 159.652 184.376 160.474Z" fill="#263238"/>
<path d="M227.126 167.71C227.126 167.71 219.935 168.631 217.578 176.479C215.221 184.328 208.57 184.231 208.57 184.231" stroke="#263238" stroke-width="0.5" stroke-miterlimit="10" stroke-linecap="round" stroke-linejoin="round"/>
<path d="M233.5 166.506C233.5 166.506 243.876 165.26 248.21 174.008C252.909 183.495 246.381 187.603 246.381 187.603" stroke="#263238" stroke-width="0.5" stroke-miterlimit="10" stroke-linecap="round" stroke-linejoin="round"/>
<path opacity="0.2" d="M219.555 227.121C219.172 223.702 218.612 219.537 218.108 215.959C218.472 215.549 218.874 215.25 219.322 215.072C219.322 215.072 222.283 222.021 219.555 227.121Z" fill="black"/>
<path d="M216.922 207.874C216.922 207.874 205.924 225.059 203.461 226.263C200.998 227.467 185.903 226.93 185.903 226.93L184.896 232.675C184.896 232.675 202.146 235.651 206.826 233.997C211.506 232.343 219.275 221.804 219.275 221.804C219.275 221.804 220.431 211.835 216.922 207.874Z" fill="#263238"/>
<path opacity="0.4" d="M216.922 207.874C216.922 207.874 205.924 225.059 203.461 226.263C200.998 227.467 185.903 226.93 185.903 226.93L184.896 232.675C184.896 232.675 202.146 235.651 206.826 233.997C211.506 232.343 219.275 221.804 219.275 221.804C219.275 221.804 220.431 211.835 216.922 207.874Z" fill="white"/>
<path d="M185.919 233.394L186.804 226.63L183.936 226.575L183.049 232.896L185.919 233.394Z" fill="#FFAC0A"/>
<path opacity="0.4" d="M185.919 233.394L186.804 226.63L183.936 226.575L183.049 232.896L185.919 233.394Z" fill="white"/>
</svg>
