<svg width="18" height="18" viewBox="0 0 18 18" fill="none" xmlns="http://www.w3.org/2000/svg">
<path d="M5.50001 0.666748H12.5C15.1667 0.666748 17.3333 2.83341 17.3333 5.50008V12.5001C17.3333 13.782 16.8241 15.0113 15.9177 15.9178C15.0113 16.8242 13.7819 17.3334 12.5 17.3334H5.50001C2.83334 17.3334 0.666672 15.1667 0.666672 12.5001V5.50008C0.666672 4.2182 1.1759 2.98882 2.08232 2.0824C2.98875 1.17597 4.21813 0.666748 5.50001 0.666748ZM5.33334 2.33341C4.53769 2.33341 3.77463 2.64949 3.21202 3.21209C2.64941 3.7747 2.33334 4.53777 2.33334 5.33341V12.6667C2.33334 14.3251 3.675 15.6667 5.33334 15.6667H12.6667C13.4623 15.6667 14.2254 15.3507 14.788 14.7881C15.3506 14.2255 15.6667 13.4624 15.6667 12.6667V5.33341C15.6667 3.67508 14.325 2.33341 12.6667 2.33341H5.33334ZM13.375 3.58341C13.6513 3.58341 13.9162 3.69316 14.1116 3.88851C14.3069 4.08386 14.4167 4.34881 14.4167 4.62508C14.4167 4.90135 14.3069 5.1663 14.1116 5.36165C13.9162 5.557 13.6513 5.66675 13.375 5.66675C13.0987 5.66675 12.8338 5.557 12.6384 5.36165C12.4431 5.1663 12.3333 4.90135 12.3333 4.62508C12.3333 4.34881 12.4431 4.08386 12.6384 3.88851C12.8338 3.69316 13.0987 3.58341 13.375 3.58341ZM9 4.83341C10.1051 4.83341 11.1649 5.2724 11.9463 6.0538C12.7277 6.8352 13.1667 7.89501 13.1667 9.00008C13.1667 10.1052 12.7277 11.165 11.9463 11.9464C11.1649 12.7278 10.1051 13.1667 9 13.1667C7.89494 13.1667 6.83513 12.7278 6.05373 11.9464C5.27233 11.165 4.83334 10.1052 4.83334 9.00008C4.83334 7.89501 5.27233 6.8352 6.05373 6.0538C6.83513 5.2724 7.89494 4.83341 9 4.83341ZM9 6.50008C8.33696 6.50008 7.70108 6.76347 7.23224 7.23231C6.7634 7.70115 6.5 8.33704 6.5 9.00008C6.5 9.66312 6.7634 10.299 7.23224 10.7678C7.70108 11.2367 8.33696 11.5001 9 11.5001C9.66305 11.5001 10.2989 11.2367 10.7678 10.7678C11.2366 10.299 11.5 9.66312 11.5 9.00008C11.5 8.33704 11.2366 7.70115 10.7678 7.23231C10.2989 6.76347 9.66305 6.50008 9 6.50008Z" fill="white"/>
</svg>
