<svg width="8" height="7" viewBox="0 0 8 7" fill="none" xmlns="http://www.w3.org/2000/svg">
<path d="M1.19333 0.333448L6.80667 0.333449C7.02828 0.333128 7.24544 0.395573 7.43304 0.513555C7.62063 0.631537 7.77097 0.800232 7.86667 1.00012C7.97869 1.23728 8.02183 1.50114 7.99119 1.76163C7.96054 2.02212 7.85734 2.26876 7.69333 2.47345L4.88667 5.87345C4.77652 6.00053 4.64035 6.10246 4.48736 6.17231C4.33438 6.24217 4.16817 6.27832 4 6.27832C3.83182 6.27832 3.66561 6.24217 3.51263 6.17231C3.35965 6.10246 3.22348 6.00053 3.11333 5.87345L0.306665 2.47345C0.142661 2.26876 0.0394553 2.02212 0.00880948 1.76163C-0.0218368 1.50114 0.0213108 1.23728 0.133333 1.00011C0.229027 0.800232 0.379372 0.631536 0.566963 0.513554C0.754555 0.395572 0.971724 0.333127 1.19333 0.333448Z" fill="white"/>
</svg>
